<?xml version="1.0" encoding="utf-8"?>
<!-- Generator: Adobe Illustrator 18.0.0, SVG Export Plug-In . SVG Version: 6.00 Build 0)  -->
<!DOCTYPE svg PUBLIC "-//W3C//DTD SVG 1.1//EN" "http://www.w3.org/Graphics/SVG/1.1/DTD/svg11.dtd">
<svg version="1.1" id="레이어_1" xmlns="http://www.w3.org/2000/svg" xmlns:xlink="http://www.w3.org/1999/xlink" x="0px"
	 y="0px" viewBox="-4.8 7.5 70.5 56.1" enable-background="new -4.8 7.5 70.5 56.1" xml:space="preserve">
<g>
	<path fill="#222222" d="M-3.5,37.8c1.8,6.5,5.4,12.3,10.4,16.9c4.6-4.6,7.7-10.5,8.9-16.9H-3.5z"/>
</g>
<path fill="#222222" d="M58.8,7.7c-0.2,0-0.6-0.1-1-0.1c-3.4-0.3-11.9-0.3-21.1,5.9C25.5,21,22.1,26.4,14.5,26.4
	c-6,0-15.8-6-12.4-17.9c0-0.1,0-0.2,0-0.3S2.1,8.1,2,8.1c-0.1,0-0.2-0.1-0.3,0c-0.1,0-0.2,0.1-0.2,0.2c-4.9,7.1-7.1,15.7-6.1,24.2
	c1,8.5,5.1,16.4,11.5,22.2c-3,3-6.5,5.3-10.4,7c-0.1,0-0.2,0.1-0.2,0.2c0,0.1-0.1,0.2-0.1,0.3c0,0.1,0,0.2,0.1,0.3
	c0.1,0.1,0.1,0.1,0.2,0.2c6.6,2,14.3,1.6,20.4-1.5l0.1,0c1.9-1,3.7-2.1,5.4-3.5c2.1-1.6,3.9-3.5,5.4-5.6c3.1-4.3,6.4-11,10.1-20.6
	c5.1-13.2,12.7-19.6,20.3-23c0.2-0.1,0.5-0.2,0.7-0.3C59.1,7.9,59,7.8,58.8,7.7z M30.5,31c-1.2,0-2.2-1.2-2.2-2.7
	c0-1.5,1-2.7,2.2-2.7c1.2,0,2.2,1.2,2.2,2.7S31.8,31,30.5,31z"/>
<path fill="#222222" d="M59.9,9.2c-7.6,3.4-15,9.8-20.1,22.9c-3.7,9.6-7,16.3-10.1,20.6c-1.5,2.1-3.3,4-5.4,5.6
	c-1.6,1.3-3.4,2.5-5.2,3.4c6.5,2.2,13.5,2.5,20.2,0.8c7.4-1.9,14-6.2,18.8-12.2s7.4-13.4,7.6-21.1C65.8,22.1,63.8,15.2,59.9,9.2z"/>
</svg>
