<?xml version="1.0" encoding="utf-8"?>
<!-- Generator: Adobe Illustrator 18.0.0, SVG Export Plug-In . SVG Version: 6.00 Build 0)  -->
<!DOCTYPE svg PUBLIC "-//W3C//DTD SVG 1.1//EN" "http://www.w3.org/Graphics/SVG/1.1/DTD/svg11.dtd">
<svg version="1.1" id="레이어_1" xmlns="http://www.w3.org/2000/svg" xmlns:xlink="http://www.w3.org/1999/xlink" x="0px"
	 y="0px" viewBox="0 0 595.3 841.9" enable-background="new 0 0 595.3 841.9" xml:space="preserve">
<g>
	<path fill="#222222" d="M6.2,447.4C21.4,502.3,51.8,551.3,94,590.1c38.8-38.8,65-88.7,75.1-142.7L6.2,447.4L6.2,447.4z"/>
</g>
<path fill="#FFFFFF" d="M532.2,193.3c-1.7,0-5.1-0.8-8.4-0.8c-28.7-2.5-100.5-2.5-178.2,49.8C251,305.6,222.3,351.2,158.2,351.2
	c-50.7,0-133.4-50.7-104.7-151.1c0-0.8,0-1.7,0-2.5c0-0.8,0-0.8-0.8-0.8s-1.7-0.8-2.5,0c-0.8,0-1.7,0.8-1.7,1.7
	c-41.4,60-60,132.6-51.5,204.3S40,541.2,94,590.1c-25.3,25.3-54.9,44.8-87.8,59.1c-0.8,0-1.7,0.8-1.7,1.7c0,0.8-0.8,1.7-0.8,2.5
	s0,1.7,0.8,2.5s0.8,0.8,1.7,1.7c55.7,16.9,120.7,13.5,172.3-12.7h0.8c16-8.4,31.2-17.7,45.6-29.6c17.7-13.5,32.9-29.6,45.6-47.3
	c26.2-36.3,54-92.9,85.3-173.9C398.8,282.8,463,228.8,527.2,200c1.7-0.8,4.2-1.7,5.9-2.5C534.8,195,533.9,194.1,532.2,193.3z
	 M293.3,390c-10.1,0-18.6-10.1-18.6-22.8c0-12.7,8.4-22.8,18.6-22.8c10.1,0,18.6,10.1,18.6,22.8C311.8,379.9,304.2,390,293.3,390z"
	/>
<path fill="#FFFFFF" d="M541.5,206c-64.2,28.7-126.7,82.7-169.7,193.4c-31.2,81.1-59.1,137.6-85.3,173.9
	c-12.7,17.7-27.9,33.8-45.6,47.3c-13.5,11-28.7,21.1-43.9,28.7c54.9,18.6,114,21.1,170.6,6.8c62.5-16,118.2-52.4,158.7-103
	c40.5-50.7,62.5-113.1,64.2-178.2C591.3,314.9,574.4,256.6,541.5,206z"/>
</svg>
