<svg xmlns="http://www.w3.org/2000/svg" width="180" height="38" viewBox="0 0 180 38" fill="none"><g clip-path="url(#clip0_423_7454)"><path d="M179.664 26.6878H177.977C177.886 26.6948 177.795 26.677 177.713 26.6361C177.632 26.5953 177.563 26.5331 177.514 26.456L173.182 20.8613L170.976 23.1711V26.3042C170.978 26.3551 170.97 26.406 170.951 26.4536C170.933 26.5012 170.905 26.5444 170.868 26.5805C170.832 26.6166 170.789 26.6447 170.742 26.6632C170.694 26.6817 170.643 26.6901 170.592 26.6878H169.05C168.998 26.6913 168.947 26.6839 168.899 26.6658C168.85 26.6478 168.807 26.6197 168.77 26.5833C168.734 26.5469 168.706 26.5032 168.688 26.455C168.67 26.4069 168.662 26.3555 168.666 26.3042V8.38496C168.662 8.33333 168.67 8.28159 168.688 8.23306C168.706 8.18452 168.734 8.14031 168.77 8.10334C168.806 8.06638 168.85 8.03747 168.898 8.01851C168.946 7.99956 168.998 7.99098 169.05 7.99334H170.592C170.644 7.99098 170.695 7.99956 170.744 8.01851C170.792 8.03747 170.835 8.06638 170.872 8.10334C170.908 8.14031 170.936 8.18452 170.954 8.23306C170.972 8.28159 170.979 8.33333 170.976 8.38496V20.4617L176.746 14.3554C176.801 14.2887 176.871 14.2359 176.95 14.2012C177.029 14.1665 177.116 14.1509 177.202 14.1556H178.952C179.28 14.1556 179.384 14.3554 179.152 14.6111L174.564 19.4066L179.895 26.2242C180.039 26.5119 179.935 26.6878 179.664 26.6878Z" fill="#333333"></path><path d="M153.64 20.4617C153.679 19.2063 154.087 17.9903 154.813 16.9655C155.539 15.9406 156.551 15.1522 157.722 14.6987C158.893 14.2453 160.172 14.1468 161.399 14.4157C162.626 14.6845 163.747 15.3086 164.621 16.2103C165.495 17.112 166.085 18.2512 166.316 19.4857C166.547 20.7203 166.409 21.9955 165.92 23.1523C165.43 24.309 164.611 25.2961 163.565 25.9902C162.518 26.6844 161.29 27.0549 160.034 27.0555C159.177 27.0559 158.329 26.8841 157.54 26.5504C156.751 26.2166 156.037 25.7277 155.44 25.1126C154.844 24.4976 154.377 23.7689 154.068 22.97C153.759 22.171 153.613 21.318 153.64 20.4617ZM164.206 20.4617C164.147 19.6486 163.852 18.8704 163.357 18.2226C162.862 17.5748 162.188 17.0856 161.419 16.8149C160.65 16.5442 159.819 16.5039 159.028 16.6988C158.236 16.8937 157.518 17.3155 156.963 17.9123C156.408 18.5091 156.038 19.255 155.901 20.0585C155.763 20.8621 155.863 21.6884 156.188 22.436C156.514 23.1835 157.05 23.82 157.732 24.2671C158.413 24.7143 159.211 24.9529 160.026 24.9535C160.6 24.9469 161.166 24.8239 161.691 24.5918C162.216 24.3598 162.688 24.0236 163.079 23.6035C163.47 23.1835 163.771 22.6884 163.965 22.1483C164.159 21.6082 164.241 21.0344 164.206 20.4617Z" fill="#333333"></path><path d="M139.197 20.4617C139.237 19.2063 139.645 17.9903 140.371 16.9655C141.097 15.9406 142.109 15.1522 143.28 14.6987C144.451 14.2453 145.73 14.1468 146.957 14.4157C148.184 14.6845 149.304 15.3086 150.179 16.2103C151.053 17.112 151.642 18.2512 151.873 19.4857C152.104 20.7203 151.966 21.9955 151.477 23.1523C150.988 24.309 150.169 25.2961 149.122 25.9902C148.075 26.6844 146.847 27.0549 145.591 27.0555C144.735 27.0559 143.887 26.8841 143.098 26.5504C142.308 26.2166 141.595 25.7277 140.998 25.1126C140.402 24.4976 139.935 23.7689 139.626 22.97C139.316 22.171 139.171 21.318 139.197 20.4617ZM149.764 20.4617C149.704 19.6486 149.409 18.8704 148.914 18.2226C148.419 17.5748 147.746 17.0856 146.977 16.8149C146.208 16.5442 145.377 16.5039 144.585 16.6988C143.794 16.8937 143.076 17.3155 142.521 17.9123C141.965 18.5091 141.596 19.255 141.459 20.0585C141.321 20.8621 141.421 21.6884 141.746 22.436C142.071 23.1835 142.608 23.82 143.289 24.2671C143.971 24.7143 144.768 24.9529 145.583 24.9535C146.157 24.9469 146.724 24.8239 147.248 24.5918C147.773 24.3598 148.245 24.0236 148.636 23.6035C149.027 23.1835 149.329 22.6884 149.522 22.1483C149.716 21.6082 149.798 21.0344 149.764 20.4617Z" fill="#333333"></path><path d="M137.551 20.4617C137.551 24.1302 134.985 27.0235 131.421 27.0235C130.595 27.0338 129.779 26.8488 129.039 26.4835C128.298 26.1182 127.655 25.5829 127.161 24.9214L127.065 26.3361C127.065 26.3872 127.055 26.4377 127.035 26.4848C127.015 26.5319 126.986 26.5745 126.95 26.6103C126.913 26.646 126.87 26.6741 126.823 26.6929C126.775 26.7117 126.724 26.7208 126.673 26.7197H125.267C125.215 26.7233 125.164 26.7158 125.116 26.6978C125.068 26.6798 125.024 26.6517 124.987 26.6153C124.951 26.5789 124.923 26.5352 124.905 26.4871C124.887 26.4389 124.879 26.3874 124.883 26.3361V8.38496C124.88 8.33333 124.887 8.28159 124.905 8.23306C124.923 8.18452 124.951 8.14031 124.987 8.10334C125.023 8.06638 125.067 8.03747 125.115 8.01851C125.163 7.99956 125.215 7.99098 125.267 7.99334H126.801C126.853 7.99107 126.905 7.99968 126.954 8.01856C127.002 8.03744 127.046 8.06617 127.083 8.103C127.12 8.13983 127.149 8.18393 127.168 8.23247C127.186 8.28101 127.195 8.33293 127.193 8.38496V15.9699C127.688 15.3195 128.328 14.7932 129.062 14.4326C129.796 14.072 130.603 13.8868 131.421 13.8918C134.985 13.8998 137.551 16.7931 137.551 20.4617ZM135.345 20.4617C135.388 19.8931 135.314 19.3217 135.126 18.7833C134.938 18.2448 134.641 17.7511 134.254 17.3328C133.866 16.9146 133.396 16.5809 132.874 16.3527C132.351 16.1245 131.787 16.0067 131.217 16.0067C130.647 16.0067 130.083 16.1245 129.56 16.3527C129.038 16.5809 128.568 16.9146 128.18 17.3328C127.793 17.7511 127.496 18.2448 127.308 18.7833C127.12 19.3217 127.045 19.8931 127.089 20.4617C127.06 21.0262 127.143 21.5908 127.334 22.1228C127.525 22.6548 127.82 23.1436 128.202 23.5607C128.583 23.9778 129.044 24.315 129.556 24.5527C130.069 24.7904 130.624 24.9239 131.189 24.9454C133.579 24.9215 135.345 23.0032 135.345 20.4377V20.4617Z" fill="#333333"></path><path d="M69.9462 14.1361H66.9065C66.807 14.1319 66.7087 14.1596 66.626 14.215C66.5432 14.2704 66.4803 14.3508 66.4462 14.4444L63.8407 22.213L61.0833 14.4487C61.052 14.3582 60.9934 14.2796 60.9157 14.2236C60.8379 14.1676 60.7448 14.1371 60.649 14.1361H57.7526C57.6568 14.1371 57.5637 14.1676 57.486 14.2236C57.4082 14.2796 57.3497 14.3582 57.3184 14.4487L54.5957 22.213L51.9902 14.4444C51.9548 14.3508 51.8909 14.2707 51.8075 14.2154C51.7242 14.1601 51.6255 14.1323 51.5255 14.1361H48.4858C48.2036 14.1361 48.0516 14.2924 48.1775 14.5703L52.5504 26.4252C52.585 26.5185 52.6481 26.5984 52.7307 26.6538C52.8133 26.7091 52.9113 26.737 53.0107 26.7335H55.9679C56.068 26.738 56.1669 26.7105 56.2504 26.6551C56.3339 26.5997 56.3977 26.5192 56.4325 26.4252L59.2117 19.1212L61.9865 26.4252C62.0214 26.5192 62.0851 26.5997 62.1686 26.6551C62.2521 26.7105 62.3511 26.738 62.4512 26.7335H65.4344C65.534 26.7377 65.6322 26.71 65.715 26.6546C65.7977 26.5992 65.8607 26.5188 65.8947 26.4252L70.2676 14.5703C70.3588 14.2924 70.2285 14.1361 69.9462 14.1361Z" fill="#333333"></path><path d="M84.667 19.2819V26.3514C84.6702 26.4026 84.6625 26.4538 84.6444 26.5019C84.6264 26.5499 84.5984 26.5935 84.5623 26.63C84.5263 26.6665 84.4829 26.6949 84.4351 26.7135C84.3873 26.7321 84.3361 26.7404 84.2849 26.7379H81.1974C81.146 26.7403 81.0947 26.732 81.0466 26.7135C80.9986 26.695 80.955 26.6666 80.9186 26.6302C80.8822 26.5938 80.8539 26.5502 80.8353 26.5022C80.8168 26.4542 80.8085 26.4028 80.811 26.3514V20.0505C80.811 18.0182 79.6819 17.445 78.6397 17.445C76.9027 17.445 76.1949 19.1429 76.1949 19.7595V26.3688C76.1981 26.4203 76.1903 26.472 76.172 26.5203C76.1537 26.5686 76.1253 26.6125 76.0888 26.6491C76.0522 26.6856 76.0083 26.714 75.96 26.7323C75.9117 26.7506 75.86 26.7584 75.8084 26.7552H72.7253C72.6737 26.7584 72.6221 26.7506 72.5737 26.7323C72.5254 26.714 72.4815 26.6856 72.445 26.6491C72.4084 26.6125 72.3801 26.5686 72.3618 26.5203C72.3435 26.472 72.3356 26.4203 72.3388 26.3688V8.35191C72.3356 8.30033 72.3435 8.24866 72.3618 8.20033C72.3801 8.152 72.4084 8.10811 72.445 8.07157C72.4815 8.03503 72.5254 8.00667 72.5737 7.98837C72.6221 7.97007 72.6737 7.96225 72.7253 7.96542H75.8084C75.86 7.96225 75.9117 7.97007 75.96 7.98837C76.0083 8.00667 76.0522 8.03503 76.0888 8.07157C76.1253 8.10811 76.1537 8.152 76.172 8.20033C76.1903 8.24866 76.1981 8.30033 76.1949 8.35191V16.1162C76.5804 15.4262 77.1439 14.8523 77.8268 14.4544C78.5096 14.0564 79.2867 13.849 80.0771 13.8538C82.6391 13.8538 84.667 15.9121 84.667 19.2819Z" fill="#333333"></path><path d="M100.204 14.5225V26.3513C100.207 26.4028 100.199 26.4541 100.18 26.5021C100.161 26.5501 100.133 26.5937 100.097 26.6301C100.06 26.6665 100.017 26.6949 99.9687 26.7135C99.9207 26.732 99.8693 26.7403 99.8179 26.7378H97.0127C96.962 26.7384 96.9116 26.7288 96.8647 26.7095C96.8178 26.6903 96.7753 26.6618 96.7396 26.6257C96.7039 26.5896 96.6759 26.5467 96.6572 26.4996C96.6384 26.4525 96.6294 26.4021 96.6305 26.3513L96.5524 25.4264C96.1084 25.9463 95.5562 26.363 94.9344 26.6473C94.3126 26.9316 93.6362 27.0766 92.9525 27.0722C89.4525 27.0722 86.873 24.141 86.873 20.463C86.873 16.7849 89.4438 13.8538 92.9525 13.8538C93.6432 13.8614 94.3238 14.021 94.9459 14.3212C95.5681 14.6214 96.1165 15.0548 96.5524 15.5907L96.6305 14.5355C96.6294 14.4848 96.6384 14.4344 96.6572 14.3873C96.6759 14.3401 96.7039 14.2972 96.7396 14.2612C96.7753 14.2251 96.8178 14.1966 96.8647 14.1773C96.9116 14.1581 96.962 14.1484 97.0127 14.149H99.8179C99.8682 14.1467 99.9184 14.1546 99.9655 14.1724C100.013 14.1901 100.056 14.2173 100.092 14.2523C100.128 14.2873 100.157 14.3293 100.176 14.3758C100.195 14.4222 100.205 14.4722 100.204 14.5225ZM96.4395 20.4369C96.4395 18.6999 95.1975 17.2626 93.53 17.2626C91.8625 17.2626 90.5902 18.6391 90.5902 20.4369C90.5902 22.2347 91.8365 23.6373 93.53 23.6373C95.2236 23.6373 96.4395 22.1565 96.4395 20.4369Z" fill="#333333"></path><path d="M103.631 7.96543H106.718C106.77 7.96295 106.821 7.97124 106.869 7.98979C106.917 8.00833 106.961 8.03671 106.997 8.07311C107.033 8.1095 107.062 8.15311 107.08 8.20112C107.099 8.24913 107.107 8.30051 107.105 8.35192V26.3514C107.107 26.4028 107.099 26.4542 107.08 26.5022C107.062 26.5502 107.033 26.5938 106.997 26.6302C106.961 26.6666 106.917 26.695 106.869 26.7135C106.821 26.732 106.77 26.7403 106.718 26.7379H103.631C103.579 26.7403 103.528 26.732 103.48 26.7135C103.432 26.695 103.388 26.6666 103.352 26.6302C103.316 26.5938 103.287 26.5502 103.269 26.5022C103.25 26.4542 103.242 26.4028 103.244 26.3514V8.35192C103.242 8.30051 103.25 8.24913 103.269 8.20112C103.287 8.15311 103.316 8.1095 103.352 8.07311C103.388 8.03671 103.432 8.00833 103.48 7.98979C103.528 7.97124 103.579 7.96295 103.631 7.96543Z" fill="#333333"></path><path d="M120.875 21.8265H113.236C113.597 23.2421 114.73 23.9977 116.48 23.9977C117.35 24.0048 118.202 23.7456 118.921 23.2552C118.96 23.2188 119.006 23.1909 119.056 23.1735C119.107 23.156 119.16 23.1494 119.213 23.1539C119.267 23.1584 119.318 23.1739 119.365 23.1996C119.412 23.2253 119.453 23.2605 119.485 23.3029L120.823 24.6057C120.979 24.7837 120.979 24.9618 120.77 25.1702C120.155 25.7801 119.425 26.2622 118.622 26.5887C117.819 26.9151 116.96 27.0795 116.094 27.0722C112.133 27.0722 109.406 24.1671 109.406 20.463C109.406 16.7589 112.133 13.8538 115.811 13.8538C119.489 13.8538 121.8 16.7589 121.8 20.2328C121.8 21.288 121.674 21.8265 120.875 21.8265ZM113.184 19.3817H118.395C118.161 17.8401 117.092 17.0932 115.846 17.0932C115.196 17.0683 114.56 17.2903 114.066 17.7148C113.572 18.1393 113.257 18.7347 113.184 19.3817Z" fill="#333333"></path><path d="M32.3197 5.53822C32.2844 5.51546 32.2843 5.57361 32.0088 5.59384C31.8823 5.59384 32.0088 5.70003 31.8925 5.75059C28.0342 7.44457 24.2114 10.7187 21.6224 17.4036C19.7363 22.2656 18.0828 25.6536 16.5 27.8481C15.7354 28.9259 14.8083 29.8786 13.7517 30.6723C12.9108 31.3615 11.9958 31.9551 11.0237 32.4421C14.609 33.9341 18.5835 34.2145 22.3428 33.2408C26.1021 32.2671 29.4407 30.0925 31.8509 27.0476C34.2611 24.0027 35.6112 20.2541 35.6958 16.3716C35.7804 12.4892 34.595 8.68525 32.3197 5.53822Z" fill="url(#paint0_linear_423_7454)"></path><path d="M21.0079 8.44579C15.3622 12.2054 13.6252 14.9663 9.7923 14.9663C6.7305 14.9663 1.80533 11.9323 3.52711 5.91999C3.5452 5.87828 3.54748 5.8314 3.53352 5.78812C3.51956 5.74485 3.49032 5.70814 3.45127 5.68485C3.40865 5.66284 3.35946 5.65711 3.31292 5.66874C3.26638 5.68038 3.22568 5.70858 3.19844 5.74806C0.712204 9.32728 -0.382711 13.6907 0.119082 18.0197C0.620876 22.3487 2.6849 26.3459 5.92397 29.2615C4.41006 30.7706 2.61474 31.9681 0.63977 32.786C0.596865 32.8075 0.561001 32.8409 0.53637 32.8822C0.511738 32.9234 0.499362 32.9708 0.500688 33.0188C0.502014 33.0668 0.516988 33.1134 0.543858 33.1533C0.570728 33.1931 0.608381 33.2244 0.652412 33.2436C3.96957 34.2549 7.91123 34.0349 10.9907 32.4851L11.0185 32.4674C11.9907 31.9804 12.9057 31.3868 13.7466 30.6976C14.8038 29.9037 15.731 28.95 16.4949 27.8709C18.0675 25.6788 19.7311 22.2909 21.6147 17.4264C24.2063 10.7617 28.0215 7.48755 31.8873 5.79105C32.0011 5.74048 32.1199 5.69497 32.2413 5.64946C32.3626 5.60395 32.3424 5.52557 32.2413 5.50788C32.1402 5.49018 31.9354 5.46742 31.7154 5.4472C30.0113 5.29803 25.7056 5.31572 21.0079 8.44579Z" fill="url(#paint1_linear_423_7454)"></path><g style="mix-blend-mode:multiply"><path style="mix-blend-mode:multiply" d="M0.66748 20.7385C1.5686 24.0277 3.39468 26.9893 5.92892 29.2716C8.26668 26.9525 9.84189 23.9758 10.4445 20.7385H0.66748Z" fill="url(#paint2_linear_423_7454)"></path></g><path d="M17.9083 17.2671C17.2812 17.2671 16.7705 16.6654 16.7705 15.9195C16.7705 15.1737 17.2762 14.5719 17.9083 14.5719C18.5403 14.5719 19.046 15.1762 19.046 15.9195C19.046 16.6628 18.5479 17.2671 17.9083 17.2671Z" fill="#0E3C7F"></path></g><defs><linearGradient id="paint0_linear_423_7454" x1="6144.09" y1="9957.73" x2="6144.09" y2="12716.5" gradientUnits="userSpaceOnUse"><stop stop-color="#E8F0F1"></stop><stop offset="0.48" stop-color="#DBEAEB"></stop><stop offset="1" stop-color="#D2E6E6"></stop></linearGradient><linearGradient id="paint1_linear_423_7454" x1="16.0954" y1="4.64572" x2="16.4645" y2="36.9729" gradientUnits="userSpaceOnUse"><stop offset="0.11" stop-color="#00DBB4"></stop><stop offset="0.4" stop-color="#02CCB4"></stop><stop offset="1" stop-color="#07AFB5"></stop></linearGradient><linearGradient id="paint2_linear_423_7454" x1="1742.44" y1="5895.35" x2="1742.44" y2="3403.77" gradientUnits="userSpaceOnUse"><stop></stop><stop offset="1" stop-color="white"></stop></linearGradient><clipPath id="clip0_423_7454"><rect width="180" height="38" fill="white"></rect></clipPath></defs></svg>