<?xml version="1.0" encoding="utf-8"?>
<!-- Generator: Adobe Illustrator 18.0.0, SVG Export Plug-In . SVG Version: 6.00 Build 0)  -->
<!DOCTYPE svg PUBLIC "-//W3C//DTD SVG 1.1//EN" "http://www.w3.org/Graphics/SVG/1.1/DTD/svg11.dtd">
<svg version="1.1" id="레이어_1" xmlns="http://www.w3.org/2000/svg" xmlns:xlink="http://www.w3.org/1999/xlink" x="0px"
	 y="0px" viewBox="0 0 55.9 55.7" enable-background="new 0 0 55.9 55.7" xml:space="preserve">
<path fill="none" stroke="#212121" stroke-width="5" stroke-miterlimit="10" d="M20.4,23.3H5.3c-1.6,0-2.8-1.3-2.8-2.8V6.8
	c0-2.3,1.9-4.3,4.3-4.3h13.7c1.6,0,2.8,1.3,2.8,2.8v15.1C23.3,22,22,23.3,20.4,23.3z"/>
<path fill="none" stroke="#212121" stroke-width="5" stroke-miterlimit="10" d="M50.6,23.3H35.5c-1.6,0-2.8-1.3-2.8-2.8V6.8
	c0-2.3,1.9-4.3,4.3-4.3h13.7c1.6,0,2.8,1.3,2.8,2.8v15.1C53.4,22,52.1,23.3,50.6,23.3z"/>
<path fill="none" stroke="#212121" stroke-width="5" stroke-miterlimit="10" d="M20.4,53.3H5.3c-1.6,0-2.8-1.3-2.8-2.8V36.8
	c0-2.3,1.9-4.3,4.3-4.3h13.7c1.6,0,2.8,1.3,2.8,2.8v15.1C23.3,52,22,53.3,20.4,53.3z"/>
<path fill="none" stroke="#212121" stroke-width="5" stroke-miterlimit="10" d="M50.6,53.3H35.5c-1.6,0-2.8-1.3-2.8-2.8V36.8
	c0-2.3,1.9-4.3,4.3-4.3h13.7c1.6,0,2.8,1.3,2.8,2.8v15.1C53.4,52,52.1,53.3,50.6,53.3z"/>
</svg>
