<?xml version="1.0" encoding="UTF-8"?> <svg xmlns="http://www.w3.org/2000/svg" width="44" height="44" viewBox="0 0 44 44" fill="none"><path fill-rule="evenodd" clip-rule="evenodd" d="M35.1061 31.2133C33.8483 30.7874 32.8291 30.2541 32.1817 29.8711C31.7624 29.6237 31.6683 29.0726 31.9661 28.6874C34.312 25.6496 35.6298 21.7778 35.3883 17.5904C34.9039 9.2163 28.0772 2.44296 19.7002 2.02148C19.4135 2.00741 19.1283 2 18.8446 2C14.1995 2 10.0009 3.91111 6.98984 6.99185C3.53503 10.3681 1.55059 15.243 2.08688 20.5659C2.89207 28.5526 9.53058 34.9015 17.5432 35.3852C17.8884 35.4067 18.2313 35.4163 18.5721 35.4163C22.3787 35.4163 25.8832 34.1296 28.6809 31.9711C29.0698 31.6711 29.6254 31.7652 29.875 32.1889C30.258 32.8363 30.7891 33.8526 31.2135 35.1067L37.9543 41.8385C38.0617 41.9467 38.2032 42 38.3439 42C38.4854 42 38.6269 41.9467 38.735 41.8385L41.838 38.7348C42.0535 38.5193 42.0543 38.1704 41.8387 37.9541L35.1061 31.2133Z" fill="#3661C7"></path><path fill-rule="evenodd" clip-rule="evenodd" d="M25.9045 18.325C21.909 21.0325 17.0127 27.7302 16.9638 27.7984L16.8393 27.9695L15.7875 26.9658L15.7697 26.9117C15.7356 26.8132 15.7356 26.8132 18.0593 21.005C18.186 20.6895 18.2912 20.4273 18.3645 20.2428H11.9193L11.3838 19.1762L11.5112 19.0902C15.5075 16.3836 20.403 9.68578 20.4519 9.61838L20.5764 9.44727L21.6267 10.4495L21.6453 10.5028C21.6801 10.6028 21.6801 10.6028 19.3497 16.4273C19.2267 16.7354 19.1245 16.9917 19.0519 17.1725H25.4964L26.0327 18.2384L25.9045 18.325Z" fill="white"></path></svg> 