<?xml version="1.0" encoding="UTF-8"?> <svg xmlns="http://www.w3.org/2000/svg" width="42" height="42" viewBox="0 0 42 42" fill="none"><path fill-rule="evenodd" clip-rule="evenodd" d="M31.6875 4.3125H26.1719V0.3125H31.6875C37.2104 0.3125 41.6875 4.78965 41.6875 10.3125V15.8281H37.6875V10.3125C37.6875 6.99879 35.0012 4.3125 31.6875 4.3125ZM15.8281 0.3125V4.3125H10.3125C6.99879 4.3125 4.3125 6.99879 4.3125 10.3125V15.8281H0.3125V10.3125C0.3125 4.78965 4.78965 0.3125 10.3125 0.3125H15.8281ZM0.3125 26.1719H4.3125V31.6875C4.3125 35.0012 6.99879 37.6875 10.3125 37.6875H15.8281V41.6875H10.3125C4.78965 41.6875 0.3125 37.2104 0.3125 31.6875V26.1719ZM26.1719 41.6875V37.6875H31.6875C35.0012 37.6875 37.6875 35.0012 37.6875 31.6875V26.1719H41.6875V31.6875C41.6875 37.2104 37.2104 41.6875 31.6875 41.6875H26.1719ZM15.3461 20.9999C15.3461 24.1209 17.8793 26.6541 21.0003 26.6541C24.1235 26.6541 26.6544 24.1217 26.6544 20.9999C26.6544 17.8758 24.1244 15.3458 21.0003 15.3458C17.8785 15.3458 15.3461 17.8767 15.3461 20.9999ZM11.3461 20.9999C11.3461 24.9367 13.705 28.3247 17.0859 29.827C18.2824 30.3586 19.607 30.6541 21.0003 30.6541C26.3335 30.6541 30.6544 26.33 30.6544 20.9999C30.6544 15.6667 26.3335 11.3458 21.0003 11.3458C15.6702 11.3458 11.3461 15.6667 11.3461 20.9999Z" fill="#0066DC"></path></svg> 