<?xml version="1.0" encoding="UTF-8"?> <svg xmlns="http://www.w3.org/2000/svg" width="44" height="44" viewBox="0 0 44 44" fill="none"><path d="M37.47 24.8402C37.25 19.1202 33.91 14.1902 29.09 11.7202C29.11 11.4902 29.13 11.2602 29.13 11.0302C29.13 7.15023 25.97 3.99023 22.09 3.99023C18.21 3.99023 15.05 7.15023 15.05 11.0302C15.05 11.2602 15.06 11.4902 15.09 11.7202C10.28 14.1902 6.93 19.1202 6.71 24.8302C3.97 25.7902 2 28.4002 2 31.4602C2 35.3402 5.16 38.5002 9.04 38.5002C10.34 38.5002 11.56 38.1402 12.61 37.5202C15.23 39.5802 18.51 40.8302 22.1 40.8302C25.69 40.8302 28.96 39.5802 31.58 37.5202C32.63 38.1402 33.84 38.5002 35.14 38.5002C39.02 38.5002 42.18 35.3402 42.18 31.4602C42.18 28.4002 40.22 25.8002 37.48 24.8302L37.47 24.8402ZM22.09 8.04023C23.74 8.04023 25.09 9.39023 25.09 11.0402C25.09 12.6902 23.74 14.0402 22.09 14.0402C20.44 14.0402 19.09 12.7002 19.09 11.0402C19.09 9.38023 20.44 8.04023 22.09 8.04023ZM9.04 34.4702C7.39 34.4702 6.04 33.1302 6.04 31.4702C6.04 29.8102 7.39 28.4702 9.04 28.4702C10.69 28.4702 12.04 29.8202 12.04 31.4702C12.04 33.1202 10.69 34.4702 9.04 34.4702ZM22.1 38.8402C19.15 38.8402 16.42 37.8702 14.2 36.2402C15.36 34.9802 16.08 33.3102 16.08 31.4702C16.08 27.5902 12.92 24.4302 9.04 24.4302C8.94 24.4302 8.83 24.4402 8.73 24.4502C9.07 19.8402 11.76 15.8702 15.6 13.7402C16.66 16.2802 19.17 18.0702 22.1 18.0702C25.03 18.0702 27.53 16.2802 28.59 13.7302C32.43 15.8702 35.12 19.8302 35.46 24.4502C35.35 24.4502 35.25 24.4302 35.14 24.4302C31.26 24.4302 28.1 27.5902 28.1 31.4702C28.1 33.3102 28.82 34.9902 29.98 36.2502C27.77 37.8702 25.04 38.8402 22.09 38.8402H22.1ZM35.14 34.4702C33.49 34.4702 32.14 33.1302 32.14 31.4702C32.14 29.8102 33.49 28.4702 35.14 28.4702C36.79 28.4702 38.14 29.8202 38.14 31.4702C38.14 33.1202 36.79 34.4702 35.14 34.4702Z" fill="#3561C8"></path></svg> 