<?xml version="1.0" encoding="UTF-8"?> <svg xmlns="http://www.w3.org/2000/svg" width="44" height="44" viewBox="0 0 44 44" fill="none"><path fill-rule="evenodd" clip-rule="evenodd" d="M41.7782 28.2527C38.7761 31.0476 34.7139 32.7632 30.242 32.7632C20.9994 32.7632 13.5068 25.4347 13.5068 16.3946C13.5068 10.235 16.9853 4.86999 22.1257 2.07642C10.9859 2.21794 2 11.0945 2 22.0239C2 33.0416 11.1316 41.9732 22.396 41.9732C31.4366 41.9732 39.1034 36.2201 41.7782 28.2527Z" fill="#0196F7"></path><path fill-rule="evenodd" clip-rule="evenodd" d="M37.198 2.58958C37.3931 1.76994 38.5594 1.76994 38.7545 2.58958L39.0366 3.77442C39.1282 4.15927 39.4873 4.41936 39.8816 4.38636L41.0686 4.28698C41.9159 4.21605 42.2742 5.34098 41.5419 5.77315L40.5571 6.35439C40.21 6.55926 40.0695 6.99037 40.2293 7.36042L40.6891 8.42547C41.0242 9.20176 40.0827 9.8995 39.4375 9.353L38.4933 8.55324C38.1949 8.3005 37.7576 8.3005 37.4592 8.55324L36.515 9.353C35.8698 9.8995 34.9283 9.20176 35.2634 8.42547L35.7232 7.36042C35.883 6.99037 35.7425 6.55926 35.3954 6.35439L34.4106 5.77315C33.6783 5.34098 34.0366 4.21605 34.8839 4.28698L36.0709 4.38636C36.4652 4.41936 36.8243 4.15927 36.9159 3.77442L37.198 2.58958ZM29.1292 11.6098C29.3243 10.7902 30.4906 10.7902 30.6857 11.6098L30.7645 11.9408C30.8561 12.3256 31.2153 12.5857 31.6095 12.5527L31.9034 12.5281C32.7507 12.4572 33.109 13.5821 32.3768 14.0143L32.1594 14.1426C31.8123 14.3474 31.6718 14.7785 31.8316 15.1486L31.9427 15.406C32.2778 16.1823 31.3363 16.88 30.6911 16.3335L30.4245 16.1077C30.1261 15.8549 29.6888 15.8549 29.3904 16.1077L29.1238 16.3335C28.4786 16.88 27.5371 16.1823 27.8722 15.406L27.9833 15.1486C28.1431 14.7785 28.0026 14.3474 27.6555 14.1426L27.4381 14.0143C26.7059 13.5821 27.0642 12.4572 27.9115 12.5281L28.2054 12.5527C28.5996 12.5857 28.9588 12.3256 29.0504 11.9408L29.1292 11.6098ZM39.9142 14.9928C39.7191 14.1731 38.5528 14.1731 38.3577 14.9928L38.2789 15.3237C38.1873 15.7086 37.8282 15.9687 37.4339 15.9357L37.14 15.9111C36.2927 15.8401 35.9344 16.9651 36.6667 17.3972L36.884 17.5255C37.2311 17.7304 37.3716 18.1615 37.2119 18.5316L37.1008 18.7889C36.7656 19.5652 37.7071 20.263 38.3523 19.7165L38.6189 19.4906C38.9173 19.2379 39.3546 19.2379 39.653 19.4906L39.9196 19.7165C40.5648 20.263 41.5063 19.5652 41.1712 18.7889L41.0601 18.5316C40.9003 18.1615 41.0408 17.7304 41.3879 17.5255L41.6053 17.3972C42.3375 16.9651 41.9792 15.8401 41.1319 15.9111L40.838 15.9357C40.4438 15.9687 40.0846 15.7086 39.993 15.3237L39.9142 14.9928Z" fill="#3561C8"></path></svg> 