<?xml version="1.0" encoding="UTF-8"?> <svg xmlns="http://www.w3.org/2000/svg" width="44" height="44" viewBox="0 0 44 44" fill="none"><circle cx="22" cy="22" r="21.5" fill="#3661C7" stroke="#325CC5"></circle><path opacity="0.6" d="M6.04418 29.9261C5.61803 29.9261 5.18758 29.7895 4.8174 29.5076C3.91346 28.8115 3.73267 27.5032 4.40847 26.5781L13.0088 14.8512C13.6846 13.9261 14.9674 13.7411 15.8713 14.4327C16.7753 15.1243 16.956 16.4371 16.2802 17.3622L7.68419 29.0847C7.28387 29.6309 6.66833 29.9217 6.04848 29.9217L6.04418 29.9261Z" fill="#64ABE8"></path><path opacity="0.6" d="M29.3547 29.9261C28.9286 29.9261 28.4981 29.7895 28.1279 29.5076C27.224 28.8115 27.0432 27.5032 27.719 26.5781L36.3151 14.8512C36.9909 13.9261 38.2736 13.7411 39.1776 14.4327C40.0815 15.1243 40.2623 16.4371 39.5865 17.3622L30.9904 29.0847C30.5858 29.6309 29.9746 29.9217 29.3547 29.9217V29.9261Z" fill="#64ABE8"></path><path d="M22 8.96875C17.0465 8.96875 13 12.752 13 17.3832V26.5543C13 31.1855 17.0465 34.9687 22 34.9687C26.9535 34.9687 31 31.1855 31 26.5543V17.3832C31 12.752 26.9535 8.96875 22 8.96875Z" fill="white"></path><rect x="20" y="13.54" width="4" height="6.5" rx="2" fill="#3661C7"></rect></svg> 