<?xml version="1.0" encoding="UTF-8"?> <svg xmlns="http://www.w3.org/2000/svg" width="44" height="44" viewBox="0 0 44 44" fill="none"><rect x="1" y="1" width="42" height="42" rx="10" fill="url(#paint0_linear_682_99204)"></rect><rect x="1.48387" y="1.48387" width="41.0323" height="41.0323" rx="9.51613" stroke="black" stroke-opacity="0.08" stroke-width="0.967742"></rect><path fill-rule="evenodd" clip-rule="evenodd" d="M31.9732 9C32.3361 9 32.6296 9.29333 32.6296 9.656C32.6296 10.0133 32.3361 10.3067 31.9786 10.3067H16.0501C14.54 10.3067 13.3074 11.5387 13.3074 13.048C13.3074 14.5573 14.54 15.7893 16.0501 15.7893H31.9786C32.3414 15.7893 32.6349 16.0827 32.6349 16.4453V34.344C32.6349 34.7067 32.3414 35 31.9786 35H16.0501C13.8196 35 12 33.1867 12 30.952V13.048C12 10.8187 13.8143 9 16.0501 9H31.9732ZM15.6182 13.1119C15.6182 12.7493 15.9117 12.4559 16.2745 12.4559H31.2211C31.5839 12.4559 31.8774 12.7493 31.8774 13.1119C31.8774 13.4746 31.5839 13.7679 31.2211 13.7679H16.2745C15.9117 13.7679 15.6182 13.4746 15.6182 13.1119Z" fill="white"></path><path d="M27 21.5L21.4966 27.8145L18.5 25" stroke="#2E58C2" stroke-width="2" stroke-linecap="round" stroke-linejoin="round"></path><defs><linearGradient id="paint0_linear_682_99204" x1="1" y1="1" x2="1" y2="43" gradientUnits="userSpaceOnUse"><stop stop-color="#2E59C6"></stop><stop offset="1" stop-color="#2950B3"></stop></linearGradient></defs></svg> 