<?xml version="1.0" encoding="UTF-8"?> <svg xmlns="http://www.w3.org/2000/svg" width="44" height="44" viewBox="0 0 44 44" fill="none"><path fill-rule="evenodd" clip-rule="evenodd" d="M4.63602 4C3.99502 4 3.47539 4.51963 3.47539 5.16063V30.833C3.47539 31.474 3.99502 31.9937 4.63601 31.9937H39.3635C40.0045 31.9937 40.5242 31.474 40.5242 30.833V5.16063C40.5242 4.51963 40.0045 4 39.3635 4H4.63602ZM36.5549 7.99903H7.44512V27.9945H13.8057V27.762C13.8057 24.963 15.4991 22.694 17.588 22.694H26.4135C28.5025 22.694 30.1959 24.963 30.1959 27.762V27.9945H36.5549V7.99903ZM26.6101 16.5026C26.6101 19.0675 24.5463 21.1467 22.0004 21.1467C19.4545 21.1467 17.3906 19.0675 17.3906 16.5026C17.3906 13.9377 19.4545 11.8585 22.0004 11.8585C24.5463 11.8585 26.6101 13.9377 26.6101 16.5026ZM1 37.8394V34.1818C1 34.0214 1.12998 33.8916 1.29032 33.8916H17.9024C18.1421 34.6976 18.9709 35.289 19.8488 35.289H24.1512C25.0281 35.289 25.8568 34.6987 26.0976 33.8916H42.7097C42.87 33.8916 43 34.0216 43 34.1819V37.8387C43 38.4801 42.4801 39 41.8387 39H2.16129C1.51993 39 1 38.4808 1 37.8394Z" fill="#0066DC"></path></svg> 