<?xml version="1.0" encoding="UTF-8"?> <svg xmlns="http://www.w3.org/2000/svg" width="44" height="44" viewBox="0 0 44 44" fill="none"><path d="M29.3045 8H4.78248C2.69348 8 1 9.69055 1 11.776V32.224C1 34.3094 2.69348 36 4.78248 36H29.3045C31.3935 36 33.087 34.3094 33.087 32.224V11.776C33.087 9.69055 31.3935 8 29.3045 8Z" fill="#05C3A7"></path><path d="M39.4579 11.14L24.8289 19.572C24.4 19.8171 24.0437 20.1709 23.7959 20.5976C23.548 21.0243 23.4175 21.5088 23.4175 22.0021C23.4175 22.4953 23.548 22.9798 23.7959 23.4065C24.0437 23.8332 24.4 24.187 24.8289 24.432L39.4579 32.8601C39.8167 33.0673 40.2239 33.1766 40.6384 33.1769C41.053 33.1771 41.4603 33.0684 41.8193 32.8616C42.1784 32.6548 42.4766 32.3572 42.6838 31.9988C42.8911 31.6404 43.0001 31.2339 43 30.82V13.184C43.0008 12.7699 42.8923 12.3628 42.6853 12.0039C42.4783 11.6449 42.1803 11.3468 41.8211 11.1395C41.4619 10.9322 41.0543 10.8231 40.6394 10.8232C40.2245 10.8233 39.817 10.9326 39.4579 11.14Z" fill="#1A6EE4"></path></svg> 