<?xml version="1.0" encoding="UTF-8"?> <svg xmlns="http://www.w3.org/2000/svg" width="44" height="44" viewBox="0 0 44 44" fill="none"><path fill-rule="evenodd" clip-rule="evenodd" d="M22 42.4375C22 42.4375 39 37.2283 39 24.4418V5.26217L22 1L5 5.26217V24.4418C5 37.2283 22 42.4375 22 42.4375Z" fill="#3661C7"></path><g clip-path="url(#clip0_682_99211)"><path fill-rule="evenodd" clip-rule="evenodd" d="M16.3396 23.4578C14.1131 23.4578 12.3081 21.7444 12.3081 19.6309C12.3081 17.5173 14.1131 15.804 16.3396 15.804H26.7065H26.9944V15.8136C29.0866 15.9537 30.738 17.6092 30.738 19.6309C30.738 21.6525 29.0866 23.3081 26.9944 23.4482V23.4578H26.7065H16.3396Z" fill="#64ABE8"></path><ellipse cx="28.3548" cy="19.7902" rx="4.60748" ry="4.62421" fill="white"></ellipse></g><defs><clipPath id="clip0_682_99211"><rect width="26.3738" height="11.7997" fill="white" transform="translate(8.17725 12.6147)"></rect></clipPath></defs></svg> 