<?xml version="1.0" encoding="UTF-8"?> <svg xmlns="http://www.w3.org/2000/svg" width="44" height="45" viewBox="0 0 44 45" fill="none"><rect x="1" y="1.03125" width="42" height="42" rx="10" fill="url(#paint0_linear_1187_63930)"></rect><rect x="1.48387" y="1.51512" width="41.0323" height="41.0323" rx="9.51613" stroke="black" stroke-opacity="0.08" stroke-width="0.967742"></rect><path fill-rule="evenodd" clip-rule="evenodd" d="M31.8182 11H12.1818C10.9769 11 10 11.9381 10 13.0952V25.6666C10 26.8237 10.9769 27.7619 12.1818 27.7619H31.8182C33.0231 27.7619 34 26.8237 34 25.6666V13.0952C34 11.9381 33.0231 11 31.8182 11ZM17.54 18.696C17.1663 19.0607 17.165 19.6645 17.537 20.0309C17.8948 20.3832 18.4658 20.3842 18.8247 20.0331L21.0673 17.8396V23.2797C21.0673 23.7994 21.4851 24.2207 22.0005 24.2207C22.5159 24.2207 22.9337 23.7994 22.9337 23.2797V17.8396L25.1763 20.0331C25.5352 20.3842 26.1062 20.3832 26.464 20.0309C26.836 19.6645 26.8347 19.0607 26.461 18.696L22.7592 15.0835C22.3363 14.6707 21.6648 14.6707 21.2419 15.0835L17.54 18.696ZM17.0907 30.9048H26.9089C27.5116 30.9048 27.9998 31.3742 27.9998 31.9524C27.9998 32.5312 27.5116 33.0001 26.9089 33.0001H17.0907C16.4885 33.0001 15.9998 32.5312 15.9998 31.9524C15.9998 31.3742 16.4885 30.9048 17.0907 30.9048Z" fill="white"></path><defs><linearGradient id="paint0_linear_1187_63930" x1="1" y1="1.03125" x2="1" y2="43.0312" gradientUnits="userSpaceOnUse"><stop stop-color="#2E59C6"></stop><stop offset="1" stop-color="#2950B3"></stop></linearGradient></defs></svg> 