<?xml version="1.0" encoding="UTF-8"?> <svg xmlns="http://www.w3.org/2000/svg" width="44" height="44" viewBox="0 0 44 44" fill="none"><path d="M39.8339 4.16996C39.7903 4.14198 39.7903 4.21349 39.4506 4.23837C39.2948 4.23837 39.4506 4.36896 39.3073 4.43115C34.5521 6.5144 29.8405 10.541 26.6495 18.7621C24.3249 24.7413 22.2869 28.9078 20.3362 31.6067C19.3938 32.9322 18.2512 34.1038 16.949 35.0798C15.9125 35.9275 14.7848 36.6575 13.5867 37.2564C18.0056 39.0912 22.9041 39.4361 27.5374 38.2386C32.1707 37.0412 36.2855 34.3668 39.2561 30.6222C42.2267 26.8776 43.8906 22.2675 43.9949 17.4929C44.0992 12.7182 42.6382 8.04019 39.8339 4.16996Z" fill="url(#paint0_linear_682_99195)"></path><path d="M25.8921 7.74571C18.9338 12.3693 16.793 15.7647 12.0689 15.7647C8.29529 15.7647 2.22505 12.0335 4.34714 4.63949C4.36944 4.58818 4.37225 4.53053 4.35504 4.47731C4.33784 4.42409 4.3018 4.37895 4.25366 4.35031C4.20113 4.32324 4.14051 4.31619 4.08316 4.3305C4.0258 4.34481 3.97563 4.37949 3.94205 4.42805C0.877786 8.82977 -0.471689 14.1959 0.146768 19.5197C0.765225 24.8435 3.30912 29.7593 7.30125 33.3448C5.43536 35.2008 3.22266 36.6734 0.788512 37.6792C0.735633 37.7058 0.69143 37.7468 0.661072 37.7975C0.630714 37.8483 0.61546 37.9065 0.617094 37.9656C0.618729 38.0246 0.637184 38.082 0.670301 38.131C0.703418 38.1799 0.749826 38.2184 0.804093 38.242C4.89247 39.4858 9.75054 39.2153 13.546 37.3092L13.5803 37.2875C14.7784 36.6886 15.9061 35.9586 16.9426 35.1109C18.2456 34.1346 19.3884 32.9618 20.3298 31.6347C22.2681 28.9389 24.3185 24.7724 26.64 18.7901C29.8341 10.5939 34.5363 6.56727 39.3009 4.48091C39.4411 4.41872 39.5876 4.36276 39.7372 4.30679C39.8867 4.25082 39.8618 4.15443 39.7372 4.13267C39.6125 4.1109 39.3601 4.08292 39.089 4.05804C36.9887 3.87459 31.6819 3.89635 25.8921 7.74571Z" fill="url(#paint1_linear_682_99195)"></path><g style="mix-blend-mode:multiply"><path style="mix-blend-mode:multiply" d="M0.822754 22.8633C1.93337 26.9084 4.18401 30.5505 7.30744 33.3573C10.1887 30.5052 12.1302 26.8445 12.8729 22.8633H0.822754Z" fill="url(#paint2_linear_682_99195)"></path></g><path d="M22.0717 18.5941C21.2989 18.5941 20.6694 17.8541 20.6694 16.9368C20.6694 16.0196 21.2927 15.2795 22.0717 15.2795C22.8507 15.2795 23.474 16.0227 23.474 16.9368C23.474 17.851 22.8601 18.5941 22.0717 18.5941Z" fill="#0E3C7F"></path><defs><linearGradient id="paint0_linear_682_99195" x1="7572.54" y1="12243.4" x2="7572.54" y2="15636.1" gradientUnits="userSpaceOnUse"><stop stop-color="#E8F0F1"></stop><stop offset="0.48" stop-color="#DBEAEB"></stop><stop offset="1" stop-color="#D2E6E6"></stop></linearGradient><linearGradient id="paint1_linear_682_99195" x1="19.8375" y1="3.07239" x2="20.2905" y2="42.8283" gradientUnits="userSpaceOnUse"><stop offset="0.11" stop-color="#00DBB4"></stop><stop offset="0.4" stop-color="#02CCB4"></stop><stop offset="1" stop-color="#07AFB5"></stop></linearGradient><linearGradient id="paint2_linear_682_99195" x1="2147.55" y1="7247.46" x2="2147.55" y2="4183.31" gradientUnits="userSpaceOnUse"><stop></stop><stop offset="1" stop-color="white"></stop></linearGradient></defs></svg> 