<?xml version="1.0" encoding="UTF-8"?> <svg xmlns="http://www.w3.org/2000/svg" width="45" height="44" viewBox="0 0 45 44" fill="none"><g id="icon_app"><g id="Rectangle"><rect x="1.33337" y="1" width="42" height="42" rx="10" fill="url(#paint0_linear_571_19264)"></rect><rect x="1.81724" y="1.48387" width="41.0323" height="41.0323" rx="9.51613" stroke="black" stroke-opacity="0.08" stroke-width="0.967742"></rect></g><path id="Fill 1" fill-rule="evenodd" clip-rule="evenodd" d="M30.9444 25.2664C30.8101 25.2664 30.6862 25.3251 30.5897 25.4196C30.0828 25.9191 29.3881 26.2297 28.6179 26.2297C26.8801 26.2297 25.5086 24.6535 25.858 22.8516C26.071 21.7519 26.9578 20.8672 28.0565 20.6542C29.0439 20.4621 29.9611 20.7906 30.5897 21.4097C30.6862 21.5042 30.8101 21.5619 30.9444 21.5619C31.2141 21.5619 31.4334 21.3436 31.4334 21.0729V15.0314C31.4334 15.0303 31.4323 15.0293 31.4313 15.0293H25.3889C25.1193 15.0293 24.8999 14.811 24.8999 14.5403C24.8999 14.4059 24.9587 14.2821 25.0531 14.1866C25.6723 13.558 25.9997 12.6408 25.8076 11.6533C25.5946 10.5535 24.711 9.66677 23.6113 9.45478C21.8095 9.10533 20.2333 10.4759 20.2333 12.2148C20.2333 12.9829 20.5429 13.6787 21.0435 14.1866C21.1379 14.2821 21.1956 14.4059 21.1956 14.5403C21.1956 14.811 20.9773 15.0293 20.7066 15.0293H15.7976C15.1711 15.0293 14.6632 15.5372 14.6632 16.1637V21.0729C14.6632 21.3436 14.4439 21.5619 14.1742 21.5619C14.0409 21.5619 13.9161 21.5042 13.8206 21.4097C13.192 20.7906 12.2748 20.4621 11.2873 20.6542C10.1876 20.8672 9.30087 21.7519 9.08784 22.8516C8.73945 24.6535 10.1099 26.2297 11.8488 26.2297C12.618 26.2297 13.3127 25.9191 13.8206 25.4196C13.9161 25.3251 14.0409 25.2664 14.1742 25.2664C14.4439 25.2664 14.6632 25.4857 14.6632 25.7564V31.8H31.4313C31.4323 31.8 31.4334 31.799 31.4334 31.7979V25.7564C31.4334 25.4857 31.2141 25.2664 30.9444 25.2664Z" fill="white"></path></g><defs><linearGradient id="paint0_linear_571_19264" x1="1.33337" y1="1" x2="1.33337" y2="43" gradientUnits="userSpaceOnUse"><stop stop-color="#2E59C6"></stop><stop offset="1" stop-color="#2950B3"></stop></linearGradient></defs></svg> 