<?xml version="1.0" encoding="UTF-8"?> <svg xmlns="http://www.w3.org/2000/svg" width="44" height="44" viewBox="0 0 44 44" fill="none"><g clip-path="url(#clip0_682_99199)"><path d="M38.7045 1H5.29545C2.92818 1 1 2.9339 1 5.30818V38.6918C1 41.0661 2.92818 43 5.29545 43H38.7045C41.0718 43 43 41.0661 43 38.6918V5.30818C43 2.9339 41.0718 1 38.7045 1ZM35.1727 4.84864H38.0364V7.72077H35.1727V4.84864ZM30.4 4.84864H33.2636V7.72077H30.4V4.84864ZM40.1364 38.6918C40.1364 39.4864 39.4968 40.1279 38.7045 40.1279H5.29545C4.50318 40.1279 3.86364 39.4864 3.86364 38.6918V11.8949H40.1364V38.6918Z" fill="#3561C8"></path><g clip-path="url(#clip1_682_99199)"><path fill-rule="evenodd" clip-rule="evenodd" d="M31.6626 16.0995L31.6605 16.0991C31.5602 16.0794 27.9932 15.3782 24.0035 18.0084C22.8055 18.7979 21.8716 19.5206 21.0724 20.139C19.3617 21.4628 18.2687 22.3085 16.5262 22.3085C14.5227 22.3085 11.3207 20.3731 12.2927 16.5539C12.3016 16.5214 12.3165 16.3813 12.1928 16.3488C12.0899 16.3223 12.0124 16.4005 11.9871 16.4373C10.7319 18.3078 10 20.553 10 22.9679C10 26.4507 11.5265 29.5751 13.9488 31.7391L13.9458 31.7465C12.9441 32.7349 11.7501 33.5285 10.4234 34.0728C10.2847 34.1304 10.2892 34.3251 10.4323 34.3752C12.6445 35.0405 15.2725 34.8989 17.3252 33.8722C17.3252 33.8722 17.3386 33.8634 17.3446 33.8604C17.9439 33.5639 18.5625 33.1848 19.1617 32.6995C19.8788 32.1625 20.4631 31.571 20.9953 30.8363C22.0432 29.3892 22.8899 27.3919 24.1675 24.1922C26.1396 19.2519 27.7034 17.4257 31.6626 16.101V16.0995ZM21.9628 23.7054C21.5439 23.7054 21.204 23.3072 21.204 22.8159C21.204 22.3247 21.5439 21.9264 21.9628 21.9264C22.3816 21.9264 22.7215 22.3247 22.7215 22.8159C22.7215 23.3072 22.3816 23.7054 21.9628 23.7054ZM24.722 24.4076C26.6852 19.4894 28.1521 17.8963 31.8534 16.6586L32.0293 16.5996C33.1921 18.4199 33.8688 20.5737 33.8688 22.8867C33.8688 29.3951 28.5382 34.6702 21.9613 34.6702C20.648 34.6702 19.3839 34.4578 18.2033 34.0684C18.6713 33.7984 19.1155 33.496 19.53 33.1626C20.2962 32.5888 20.9163 31.9574 21.4798 31.1785C22.5978 29.6326 23.4892 27.4936 24.722 24.4076Z" fill="#0E3C7F"></path></g></g><defs><clipPath id="clip0_682_99199"><rect width="42" height="42" fill="white" transform="translate(1 1)"></rect></clipPath><clipPath id="clip1_682_99199"><rect width="24" height="19" fill="white" transform="translate(10 16)"></rect></clipPath></defs></svg> 