<svg data-name="Layer 1" xmlns="http://www.w3.org/2000/svg" viewBox="0 0 220 34.68"><path d="M82.07 9.97h-3.81a.6.6 0 00-.58.39l-3.25 9.73-3.46-9.73a.59.59 0 00-.55-.39h-3.64a.59.59 0 00-.55.39l-3.41 9.73-3.29-9.73a.59.59 0 00-.58-.39h-3.81c-.35 0-.51.19-.38.55l5.48 14.86a.58.58 0 00.58.39h3.71a.6.6 0 00.58-.39l3.48-9.16 3.48 9.16a.59.59 0 00.58.39h3.75a.58.58 0 00.58-.39l5.48-14.86c.12-.36-.06-.55-.39-.55zm12.72-.36a5.54 5.54 0 00-4.87 2.84V2.72a.45.45 0 00-.48-.49h-3.87a.46.46 0 00-.49.49v22.57a.46.46 0 00.49.48h3.83a.45.45 0 00.48-.48V17a3.21 3.21 0 013.06-2.9c1.29 0 2.71.74 2.71 3.29v7.9a.46.46 0 00.49.48H100a.46.46 0 00.49-.48v-8.87c.04-4.23-2.51-6.81-5.7-6.81zm24.73.36h-3.51a.48.48 0 00-.49.48l-.09 1.33a5.93 5.93 0 00-4.52-2.17c-4.38 0-7.61 3.68-7.61 8.29s3.23 8.29 7.61 8.29a5.9 5.9 0 004.52-2.06l.09 1.16a.48.48 0 00.49.48h3.51a.46.46 0 00.49-.48V10.45a.46.46 0 00-.49-.48zm-7.88 11.87a4 4 0 010-8 4 4 0 010 8zm12.67-19.61h3.87a.49.49 0 01.49.49v22.56a.48.48 0 01-.48.48h-3.87a.48.48 0 01-.48-.48V2.71a.49.49 0 01.49-.49zm15.27 7.38a8.292 8.292 0 00.35 16.58 8.23 8.23 0 005.87-2.42c.26-.26.26-.48.06-.71l-1.67-1.61a.48.48 0 00-.71-.07 5.39 5.39 0 01-3.07.94c-2.19 0-3.61-.94-4.06-2.71h9.58c1 0 1.16-.68 1.16-2 0-4.35-2.94-8-7.51-8zm-3.29 6.94a3.22 3.22 0 013.32-2.87 3.09 3.09 0 013.19 2.87zm22.85-6.86a6.63 6.63 0 00-5.31 2.6V2.77a.45.45 0 00-.48-.48h-1.95a.46.46 0 00-.49.48v22.52a.46.46 0 00.49.48h1.77a.47.47 0 00.48-.48l.13-1.77a6.56 6.56 0 005.34 2.64c4.47 0 7.69-3.64 7.69-8.24s-3.2-8.23-7.67-8.23zm-.29 13.83a5.64 5.64 0 010-11.23 5.29 5.29 0 015.21 5.6c0 3.22-2.22 5.63-5.21 5.63zM176.9 9.65a8.27 8.27 0 108 8.27 8 8 0 00-8-8.27zm0 13.9a5.64 5.64 0 115.24-5.63 5.33 5.33 0 01-5.24 5.63zm18.11-13.9a8.27 8.27 0 108 8.27 8 8 0 00-8-8.27zm0 13.9a5.64 5.64 0 115.24-5.63 5.32 5.32 0 01-5.24 5.63zm24.88 1.64l-6.69-8.56 5.75-6c.29-.32.16-.58-.25-.58h-2.19a.68.68 0 00-.58.26l-7.24 7.65V2.81a.45.45 0 00-.48-.48h-1.93a.45.45 0 00-.48.48v22.52a.45.45 0 00.48.48h1.93a.45.45 0 00.48-.48V21.4l2.77-2.89 5.44 7a.61.61 0 00.57.29h2.13c.38-.03.51-.29.29-.61zM20.08 27.38c1.91-2.67 3.46-6.35 5.79-12.26C29.48 6 32.33 2.63 39.56.19c0 0-6.6-1.4-14 3.52-6.87 4.58-9 7.94-13.65 7.94a8.28 8.28 0 01-7.63-11 .21.21 0 00-.09-.28.23.23 0 00-.31.08A21.79 21.79 0 007.2 29.07a20.08 20.08 0 01-6.43 4.29.3.3 0 000 .56 17.59 17.59 0 0012.59-.93 17.22 17.22 0 003.32-2.14 15.41 15.41 0 003.4-3.47zm1.73-15.9a1.35 1.35 0 11-1.19 1.33 1.27 1.27 0 011.19-1.33z"/><path d="M40.09 1.41c-6.71 2.27-9.52 5.35-13.07 14.34-2.24 5.69-3.87 9.63-5.91 12.47a16.49 16.49 0 01-3.56 3.66 19.27 19.27 0 01-2.46 1.67 21.28 21.28 0 006.75 1.12A21.81 21.81 0 0040.35 1.33z"/></svg>