<?xml version="1.0" encoding="UTF-8"?> <svg xmlns="http://www.w3.org/2000/svg" width="44" height="44" viewBox="0 0 44 44" fill="none"><path fill-rule="evenodd" clip-rule="evenodd" d="M30.3707 1.69238C27.34 1.7021 24.3126 2.86216 22.0001 5.1749L21.9999 5.17472C19.6877 2.86252 16.6603 1.70246 13.6299 1.69238H13.5524C12.4715 1.6958 11.3915 1.84549 10.3437 2.14144C8.45124 2.67577 6.66419 3.68524 5.17472 5.17472C3.68524 6.66419 2.67595 8.45106 2.14144 10.3437C1.00891 14.3548 2.0182 18.8434 5.17472 22.0001C2.86288 24.3121 1.70264 27.3385 1.69238 30.3686V30.4485C1.6958 31.529 1.84567 32.6088 2.14144 33.6564C2.67595 35.5489 3.68542 37.3358 5.17472 38.8252C6.66419 40.3149 8.45124 41.3242 10.3437 41.8585C11.4034 42.1579 12.4963 42.3076 13.5891 42.3078H13.5923C16.6355 42.3074 19.678 41.1473 22.0001 38.8252V38.8254C24.3123 41.1375 27.3398 42.2977 30.3702 42.3078H30.4479C31.5288 42.3043 32.6086 42.1547 33.6564 41.8587C35.5491 41.3242 37.336 40.3149 38.8254 38.8254C40.3149 37.336 41.3244 35.5491 41.8587 33.6564C42.1547 32.6088 42.3043 31.5288 42.3078 30.4485V30.3691C42.2977 27.3387 41.1376 24.3123 38.8254 22.0001C41.1491 19.6764 42.3092 16.6305 42.3078 13.585V13.5826C42.307 12.492 42.1572 11.401 41.8587 10.3437C41.3244 8.45124 40.3149 6.66419 38.8254 5.1749C37.3358 3.68524 35.5489 2.67577 33.6563 2.14144C32.6085 1.84549 31.5277 1.6958 30.447 1.69238H30.3707ZM11.8677 20.0698L10.6749 18.8774L9.48626 17.6885C7.22119 15.4235 7.22119 11.7513 9.48626 9.48608C11.7513 7.22119 15.4236 7.22119 17.6885 9.48608L18.8774 10.6749L20.0698 11.8677C21.136 12.9335 22.8642 12.9335 23.9301 11.8675V11.8677L25.1228 10.6749L26.3114 9.48626C28.5767 7.22119 32.2488 7.22119 34.5139 9.48626C36.779 11.7513 36.779 15.4235 34.5139 17.6887L33.325 18.8774L32.1324 20.07C31.0666 21.136 31.0666 22.8642 32.1324 23.9301L33.325 25.1228L34.5139 26.3116C36.779 28.5765 36.779 32.2488 34.5139 34.5137C32.2488 36.779 28.5767 36.7788 26.3114 34.5137L25.1228 33.3252L23.9301 32.1324C22.8642 31.0666 21.136 31.0666 20.07 32.1324L18.8774 33.3252L17.6887 34.5137C15.4236 36.7788 11.7513 36.7788 9.48644 34.5137C7.22119 32.2488 7.22119 28.5763 9.48644 26.3114L10.6749 25.1228L11.8677 23.9301H11.8675C12.9335 22.864 12.9335 21.136 11.8677 20.0698Z" fill="url(#paint0_linear_682_100831)"></path><defs><linearGradient id="paint0_linear_682_100831" x1="6.9418" y1="8.86775" x2="6.9418" y2="38.9843" gradientUnits="userSpaceOnUse"><stop stop-color="#00D0B6"></stop><stop offset="0.430041" stop-color="#00CF9C"></stop><stop offset="1" stop-color="#00CF80"></stop></linearGradient></defs></svg> 