<?xml version="1.0" encoding="UTF-8"?> <svg xmlns="http://www.w3.org/2000/svg" width="44" height="44" viewBox="0 0 44 44" fill="none"><rect x="1" y="1" width="42" height="42" rx="10" fill="url(#paint0_linear_682_99200)"></rect><rect x="1.48387" y="1.48387" width="41.0323" height="41.0323" rx="9.51613" stroke="black" stroke-opacity="0.08" stroke-width="0.967742"></rect><path fill-rule="evenodd" clip-rule="evenodd" d="M19.5 11H11.625C10.1813 11 9.01313 12.1484 9.01313 13.5521L9 30.3229C9 31.7266 10.1813 32.875 11.625 32.875H32.625C34.0688 32.875 35.25 31.7266 35.25 30.3229V16.1042C35.25 14.7005 34.0688 13.5521 32.625 13.5521H22.125L19.5 11Z" fill="url(#paint1_linear_682_99200)"></path><path fill-rule="evenodd" clip-rule="evenodd" d="M9 18.0367C9 16.9398 9.88926 16.0505 10.9862 16.0505H33.2638C34.3607 16.0505 35.25 16.9398 35.25 18.0367V30.8779C35.25 31.9748 34.3607 32.8641 33.2638 32.8641H10.9862C9.88925 32.8641 9 31.9748 9 30.8779V18.0367Z" fill="url(#paint2_linear_682_99200)"></path><defs><linearGradient id="paint0_linear_682_99200" x1="1" y1="1" x2="1" y2="43" gradientUnits="userSpaceOnUse"><stop stop-color="#2E59C6"></stop><stop offset="1" stop-color="#2950B3"></stop></linearGradient><linearGradient id="paint1_linear_682_99200" x1="12.217" y1="11" x2="12.217" y2="27.5134" gradientUnits="userSpaceOnUse"><stop stop-color="white"></stop><stop offset="1" stop-color="white" stop-opacity="0.1"></stop></linearGradient><linearGradient id="paint2_linear_682_99200" x1="-3.16072" y1="24.1722" x2="11.6816" y2="47.0203" gradientUnits="userSpaceOnUse"><stop stop-color="white"></stop><stop offset="1" stop-color="white"></stop></linearGradient></defs></svg> 