<?xml version="1.0" encoding="UTF-8"?> <svg xmlns="http://www.w3.org/2000/svg" width="44" height="44" viewBox="0 0 44 44" fill="none"><rect x="1" y="1" width="42" height="42" rx="10" fill="url(#paint0_linear_682_99197)"></rect><rect x="1.48387" y="1.48387" width="41.0323" height="41.0323" rx="9.51613" stroke="black" stroke-opacity="0.08" stroke-width="0.967742"></rect><path d="M30.3806 24.1899C29.9956 24.1899 29.6161 24.0439 29.3217 23.7519C25.2784 19.7484 18.7095 19.7484 14.6662 23.7519C14.0829 24.3303 13.1316 24.3303 12.5483 23.7519C11.965 23.1736 11.965 22.2303 12.5483 21.6519C17.7581 16.4861 26.2298 16.4861 31.4396 21.6519C32.0229 22.2303 32.0229 23.1736 31.4396 23.7519C31.1451 24.0439 30.76 24.1899 30.3806 24.1899Z" fill="white"></path><path d="M26.3261 28.2049C25.941 28.2049 25.5616 28.0589 25.2672 27.7669C24.3951 26.9022 23.2285 26.4249 21.994 26.4249C20.7595 26.4249 19.593 26.9022 18.7209 27.7669C18.1376 28.3452 17.1863 28.3452 16.603 27.7669C16.0197 27.1885 16.0197 26.2452 16.603 25.6669C18.0413 24.2407 19.9554 23.4546 21.994 23.4546C24.0327 23.4546 25.9467 24.2407 27.3851 25.6725C27.9683 26.2508 27.9683 27.1942 27.3851 27.7725C27.0963 28.0589 26.7112 28.2049 26.3261 28.2049Z" fill="white"></path><path d="M21.9944 32.9998C23.0984 32.9998 23.9933 32.1124 23.9933 31.0177C23.9933 29.9231 23.0984 29.0356 21.9944 29.0356C20.8903 29.0356 19.9954 29.9231 19.9954 31.0177C19.9954 32.1124 20.8903 32.9998 21.9944 32.9998Z" fill="white"></path><path d="M34.4979 20.108C34.1129 20.108 33.7334 19.962 33.439 19.6701C27.1249 13.415 16.8638 13.415 10.5554 19.6701C9.97209 20.2484 9.02073 20.2484 8.43746 19.6701C7.85418 19.0917 7.85418 18.1484 8.43746 17.5701C12.0617 13.9765 16.8751 12 22 12C27.1249 12 31.9383 13.9765 35.5625 17.5701C36.1458 18.1484 36.1458 19.0917 35.5625 19.6701C35.2624 19.962 34.8773 20.108 34.4979 20.108Z" fill="white"></path><defs><linearGradient id="paint0_linear_682_99197" x1="1" y1="1" x2="1" y2="43" gradientUnits="userSpaceOnUse"><stop stop-color="#2E59C6"></stop><stop offset="1" stop-color="#2950B3"></stop></linearGradient></defs></svg> 