<?xml version="1.0" encoding="UTF-8"?> <svg xmlns="http://www.w3.org/2000/svg" width="44" height="44" viewBox="0 0 44 44" fill="none"><circle cx="22" cy="22" r="21" fill="#3661C7"></circle><path d="M13.7909 14.2363H16.5993L22.4004 29.3579H19.5716L18.1572 25.3591H12.1408L10.7263 29.3579H8L13.7807 14.2363H13.7909ZM12.8685 23.3442H17.4705L15.2156 16.8371H15.1541L12.8787 23.3442H12.8685Z" fill="white"></path><path d="M22.999 24.5985C27.9905 21.6276 28.2672 20.7744 28.2672 18.3175V17.2073H23.2758V15.3981H30.3684V18.4203C30.3684 21.7818 29.6099 22.892 24.106 26.2638L22.999 24.5985ZM34.8781 19.6333H36.9997V21.4631H34.8781V29.4608H32.777V14H34.8781V19.6333Z" fill="white"></path></svg> 