<?xml version="1.0" encoding="UTF-8"?> <svg xmlns="http://www.w3.org/2000/svg" width="44" height="44" viewBox="0 0 44 44" fill="none"><circle cx="22" cy="22" r="21" fill="#3661C7"></circle><path d="M26.502 28.878C25.088 29.8432 23.4325 30.3296 21.7398 30.3063C21.517 30.3037 21.2941 30.2934 21.0739 30.2727C20.9837 30.2649 20.8935 30.2494 20.8033 30.239C20.6309 30.2158 20.4584 30.1951 20.2886 30.1614C20.1852 30.1433 20.0844 30.1174 19.9809 30.0941C19.8164 30.0579 19.6519 30.0191 19.4901 29.9725C19.4131 29.9492 19.3362 29.9234 19.2593 29.8975C19.0736 29.838 18.8878 29.7733 18.7101 29.7008C18.6703 29.6853 18.6305 29.6646 18.5907 29.6491C18.3811 29.5585 18.1715 29.4628 17.9725 29.3567C17.9619 29.3515 17.954 29.349 17.946 29.3438C17.2668 28.9789 16.6434 28.5236 16.0969 27.9931C16.0889 27.9854 16.0809 27.975 16.0703 27.9647C15.9005 27.7991 15.7387 27.6257 15.5848 27.4446C15.553 27.4058 15.5211 27.3644 15.4893 27.3256C14.3777 25.9697 13.7065 24.2543 13.7065 22.3861H15.8448L12.4224 17.3794L9 22.3861H11.1383C11.1383 24.5803 11.8414 26.614 13.0326 28.2959C13.0459 28.3191 13.0565 28.345 13.0724 28.3683C13.1944 28.5391 13.3324 28.6995 13.465 28.8625C13.5155 28.9246 13.5606 28.9867 13.611 29.0488C13.8073 29.2791 14.0142 29.4964 14.2265 29.7086C14.2477 29.7293 14.2663 29.75 14.2848 29.7681C15.0012 30.4667 15.8103 31.0541 16.6885 31.525C16.7124 31.5379 16.7336 31.5509 16.7601 31.5638C17.0121 31.6958 17.2748 31.8174 17.5374 31.9312C17.6038 31.9597 17.6674 31.9907 17.7338 32.0166C17.9593 32.1072 18.1901 32.1874 18.4262 32.265C18.5376 32.3012 18.6464 32.3401 18.7578 32.3737C18.9621 32.4332 19.1717 32.4824 19.3813 32.5315C19.5219 32.5626 19.6599 32.5962 19.8005 32.6247C19.8588 32.6376 19.9146 32.6531 19.9729 32.6635C20.1719 32.6971 20.3709 32.7178 20.5699 32.7411C20.6415 32.7489 20.7131 32.7618 20.7848 32.7696C21.1429 32.8032 21.4984 32.8265 21.8539 32.8265C24.0294 32.8265 26.1492 32.177 27.9692 30.9351C28.5502 30.5366 28.6908 29.7578 28.2849 29.1911C27.8816 28.6167 27.0804 28.4822 26.502 28.878Z" fill="white"></path><path d="M32.8621 22.4249C32.8621 20.2385 32.1643 18.2073 30.9784 16.528C30.9625 16.4996 30.9493 16.4711 30.9307 16.4427C30.7821 16.2382 30.6229 16.0468 30.4611 15.8553C30.4425 15.832 30.424 15.8087 30.4054 15.7854C29.3203 14.5021 27.9566 13.5085 26.4126 12.8616C26.3701 12.8435 26.3277 12.8228 26.2852 12.8047C26.0385 12.7064 25.7865 12.6184 25.5318 12.5356C25.4389 12.5071 25.3514 12.4735 25.2559 12.4476C25.0357 12.3829 24.8101 12.3286 24.5846 12.2794C24.4599 12.251 24.3353 12.2199 24.2079 12.1966C24.1442 12.1863 24.0859 12.1682 24.0248 12.1552C23.8551 12.1268 23.6853 12.1138 23.5155 12.0931C23.3987 12.0776 23.2847 12.0621 23.1653 12.0492C22.8814 12.0233 22.5975 12.0129 22.3163 12.0078C22.2659 12.0078 22.2155 12 22.1651 12C22.1571 12 22.1465 12.0026 22.1385 12.0026C19.9657 12.0052 17.8486 12.6443 16.0313 13.8863C15.4476 14.2821 15.307 15.061 15.7129 15.6276C16.1188 16.1943 16.92 16.3314 17.5011 15.9355C18.9045 14.9782 20.5441 14.4917 22.2234 14.5072C22.4649 14.5098 22.7036 14.5202 22.9371 14.5435C23.0087 14.5512 23.0804 14.5616 23.152 14.5693C23.3457 14.5926 23.5367 14.6185 23.7251 14.6547C23.81 14.6703 23.8922 14.691 23.9718 14.7091C24.1575 14.7505 24.3432 14.7944 24.5236 14.8462C24.582 14.8643 24.6377 14.885 24.6934 14.9031C24.9003 14.9704 25.1046 15.0403 25.3036 15.1205C25.3248 15.1282 25.3461 15.1386 25.3646 15.1463C26.5611 15.6483 27.6091 16.4194 28.4289 17.3871C28.4342 17.3923 28.4395 17.4 28.4448 17.4052C29.5962 18.774 30.2913 20.5205 30.2913 22.4249H28.1503L31.578 27.4316L35.0004 22.4249H32.8621Z" fill="white"></path></svg> 