<?xml version="1.0" encoding="UTF-8"?> <svg xmlns="http://www.w3.org/2000/svg" width="44" height="44" viewBox="0 0 44 44" fill="none"><g id="icon_newtab"><path id="newtab" fill-rule="evenodd" clip-rule="evenodd" d="M11 5H33C36.3137 5 39 7.68629 39 11V33C39 36.3137 36.3137 39 33 39H11C7.68629 39 5 36.3137 5 33V11C5 7.68629 7.68629 5 11 5ZM1 11C1 5.47715 5.47715 1 11 1H33C38.5228 1 43 5.47715 43 11V33C43 38.5228 38.5228 43 33 43H11C5.47715 43 1 38.5228 1 33V11ZM22 11C20.8954 11 20 11.8954 20 13V20H13C11.8954 20 11 20.8954 11 22C11 23.1046 11.8954 24 13 24H20V31C20 32.1046 20.8954 33 22 33C23.1046 33 24 32.1046 24 31V24H31C32.1046 24 33 23.1046 33 22C33 20.8954 32.1046 20 31 20H24V13C24 11.8954 23.1046 11 22 11Z" fill="#0066DC"></path></g></svg> 