<?xml version="1.0" encoding="UTF-8"?> <svg xmlns="http://www.w3.org/2000/svg" width="45" height="44" viewBox="0 0 45 44" fill="none"><g id="icon_alert"><g id="icon_alert_2"><path id="Vector" d="M18.8964 5.91456L1.87208 34.0341C1.52108 34.6355 1.33536 35.3173 1.33339 36.0118C1.33142 36.7063 1.51328 37.3892 1.86088 37.9925C2.20847 38.5959 2.70968 39.0986 3.31464 39.4508C3.9196 39.803 4.60722 39.9924 5.30909 40H39.3577C40.0595 39.9924 40.7472 39.803 41.3521 39.4508C41.9571 39.0986 42.4583 38.5959 42.8059 37.9925C43.1535 37.3892 43.3353 36.7063 43.3334 36.0118C43.3314 35.3173 43.1457 34.6355 42.7947 34.0341L25.7704 5.91456C25.4121 5.33011 24.9076 4.84689 24.3055 4.51154C23.7035 4.17618 23.0243 4 22.3334 4C21.6425 4 20.9633 4.17618 20.3612 4.51154C19.7592 4.84689 19.2547 5.33011 18.8964 5.91456Z" fill="#0066DC"></path><path id="Vector_2" d="M22.3334 17V27" stroke="white" stroke-width="3" stroke-linecap="round" stroke-linejoin="round"></path><circle id="Ellipse 590" cx="22.3334" cy="32.5" r="1.5" fill="white"></circle></g></g></svg> 