<?xml version="1.0" encoding="UTF-8"?> <svg xmlns="http://www.w3.org/2000/svg" width="45" height="44" viewBox="0 0 45 44" fill="none"><g id="icon_dualtab"><path id="tab" fill-rule="evenodd" clip-rule="evenodd" d="M24.3334 5H33.3334C36.6471 5 39.3334 7.68629 39.3334 11V33C39.3334 36.3137 36.6471 39 33.3334 39H24.3334V5ZM20.3334 1H24.3334H33.3334C38.8562 1 43.3334 5.47715 43.3334 11V33C43.3334 38.5228 38.8562 43 33.3334 43H24.3334H20.3334H11.3334C5.81053 43 1.33337 38.5228 1.33337 33V11C1.33337 5.47715 5.81053 1 11.3334 1H20.3334ZM20.3334 39H11.3334C8.01967 39 5.33337 36.3137 5.33337 33V11C5.33337 7.68629 8.01967 5 11.3334 5H20.3334V39Z" fill="#0066DC"></path></g></svg> 