<?xml version="1.0" encoding="UTF-8"?> <svg xmlns="http://www.w3.org/2000/svg" width="44" height="44" viewBox="0 0 44 44" fill="none"><g clip-path="url(#clip0_2606_177)"><path d="M38.7045 1H5.29545C2.92818 1 1 2.9339 1 5.30818V38.6918C1 41.0661 2.92818 43 5.29545 43H38.7045C41.0718 43 43 41.0661 43 38.6918V5.30818C43 2.9339 41.0718 1 38.7045 1ZM35.1727 4.84864H38.0364V7.72077H35.1727V4.84864ZM30.4 4.84864H33.2636V7.72077H30.4V4.84864ZM40.1364 38.6918C40.1364 39.4864 39.4968 40.1279 38.7045 40.1279H5.29545C4.50318 40.1279 3.86364 39.4864 3.86364 38.6918V11.8949H40.1364V38.6918Z" fill="#3561C8"></path></g><defs><clipPath id="clip0_2606_177"><rect width="42" height="42" fill="white" transform="translate(1 1)"></rect></clipPath></defs></svg> 