<?xml version="1.0" encoding="UTF-8"?> <svg xmlns="http://www.w3.org/2000/svg" width="45" height="44" viewBox="0 0 45 44" fill="none"><g id="icon_sidebar"><path id="tab" fill-rule="evenodd" clip-rule="evenodd" d="M24.6667 5H33.6667C36.9804 5 39.6667 7.68629 39.6667 11V14L24.6667 14V5ZM43.6667 11V14V18V27V31V33C43.6667 38.5228 39.1895 43 33.6667 43H24.6667H20.6667H11.6667C6.14384 43 1.66669 38.5228 1.66669 33V11C1.66669 5.47715 6.14384 1 11.6667 1H20.6667H24.6667H33.6667C39.1895 1 43.6667 5.47715 43.6667 11ZM39.6667 27V18H24.6667V27L39.6667 27ZM24.6667 31H39.6667V33C39.6667 36.3137 36.9804 39 33.6667 39H24.6667V31ZM20.6667 31V27V18V14V5H11.6667C8.35298 5 5.66669 7.68629 5.66669 11V33C5.66669 36.3137 8.35298 39 11.6667 39H20.6667V31Z" fill="#0066DC"></path></g></svg> 