<?xml version="1.0" encoding="UTF-8"?> <svg xmlns="http://www.w3.org/2000/svg" width="44" height="44" viewBox="0 0 44 44" fill="none"><path d="M3 5H14.4C18.599 5 22 8.401 22 12.6V39.2C22 36.046 19.454 33.5 16.3 33.5H3V5Z" stroke="#3561C8" stroke-width="2" stroke-linecap="round" stroke-linejoin="round"></path><path d="M3 5H14.4C18.599 5 22 8.401 22 12.6V39.2C22 36.046 19.454 33.5 16.3 33.5H3V5Z" fill="#3561C8"></path><path d="M41 5H29.6C25.401 5 22 8.401 22 12.6V39.2C22 36.046 24.546 33.5 27.7 33.5H41V5Z" stroke="#3561C8" stroke-width="2" stroke-linecap="round" stroke-linejoin="round"></path><path d="M41 5H29.6C25.401 5 22 8.401 22 12.6V39.2C22 36.046 24.546 33.5 27.7 33.5H41V5Z" fill="#3561C8"></path><path d="M30.5991 13.3089L21.2698 22.5755L17.7938 19.0834C17.3818 18.6715 16.7209 18.6715 16.309 19.0834C15.897 19.4952 15.897 20.1559 16.309 20.5678L20.5231 24.8064C20.7205 25.0037 20.9865 25.1153 21.2698 25.1153C21.5444 25.1153 21.8105 25.0037 22.0079 24.8064L32.0839 14.7933C32.4959 14.3814 32.4959 13.7207 32.0839 13.3089C31.672 12.897 31.0111 12.897 30.5991 13.3089Z" fill="white"></path></svg> 