<?xml version="1.0" encoding="UTF-8"?> <svg xmlns="http://www.w3.org/2000/svg" width="44" height="44" viewBox="0 0 44 44" fill="none"><path d="M18.563 5.91456L1.5387 34.0341C1.1877 34.6355 1.00198 35.3173 1.00002 36.0118C0.99805 36.7063 1.17991 37.3892 1.5275 37.9925C1.87509 38.5959 2.3763 39.0986 2.98126 39.4508C3.58622 39.803 4.27384 39.9924 4.97572 40H39.0243C39.7262 39.9924 40.4138 39.803 41.0187 39.4508C41.6237 39.0986 42.1249 38.5959 42.4725 37.9925C42.8201 37.3892 43.0019 36.7063 43 36.0118C42.998 35.3173 42.8123 34.6355 42.4613 34.0341L25.437 5.91456C25.0787 5.33011 24.5742 4.84689 23.9722 4.51154C23.3701 4.17618 22.6909 4 22 4C21.3091 4 20.6299 4.17618 20.0278 4.51154C19.4258 4.84689 18.9213 5.33011 18.563 5.91456Z" fill="#0066DC"></path><path d="M22 17V27" stroke="white" stroke-width="3" stroke-linecap="round" stroke-linejoin="round"></path><circle cx="22" cy="32.5" r="1.5" fill="white"></circle></svg> 