<?xml version="1.0" encoding="UTF-8"?> <svg xmlns="http://www.w3.org/2000/svg" width="44" height="44" viewBox="0 0 44 44" fill="none"><path d="M8.5 32.9578C8.49977 32.6652 8.53326 32.3737 8.59965 32.0902L9.67266 22.6892C9.90328 20.6687 11.6132 19.1428 13.6469 19.1428H29.5794C31.6131 19.1428 33.323 20.6687 33.5536 22.6892L34.5939 31.8035C34.6157 31.9944 34.6548 32.1828 34.6894 32.3718C34.7247 32.5647 34.745 32.7608 34.75 32.9578C34.75 36.9269 28.8755 40.1428 21.625 40.1428C14.3745 40.1428 8.5 36.9269 8.5 32.9578Z" fill="url(#paint0_linear_22_59054)" fill-opacity="0.4"></path><path d="M42.1246 13.5077L34.4122 9.77718L23.423 4.46168C22.9976 4.25207 22.5269 4.14282 22.0494 4.14282C21.5719 4.14282 21.1012 4.25207 20.6757 4.46168L1.99416 13.498C1.65581 13.6538 1.37835 13.9109 1.2029 14.2312C1.05169 14.5073 0.983192 14.8176 1.00349 15.1275C1.01001 15.227 1.02012 15.3264 1.02012 15.4261V15.4261V15.4261C1.02012 15.4743 1.02522 15.5224 1.03912 15.5686C1.0522 15.612 1.06753 15.6548 1.08506 15.6967C1.12095 15.7863 1.16613 15.8721 1.21992 15.9528C1.32723 16.1198 1.46421 16.267 1.62453 16.3878C1.69672 16.438 1.77132 16.485 1.84809 16.5285C1.85869 16.5345 1.87068 16.5376 1.88287 16.5376V16.5376C1.89365 16.5376 1.90429 16.54 1.91399 16.5447L20.5808 25.5739C21.0063 25.7835 21.477 25.8928 21.9545 25.8928C22.432 25.8928 22.9027 25.7835 23.3281 25.5739L42.0097 16.5376C42.3073 16.3934 42.5576 16.1719 42.7325 15.898C42.9074 15.624 43 15.3084 43 14.9864C43 14.6644 42.9074 14.3488 42.7325 14.0748C42.5576 13.8009 42.3073 13.5794 42.0097 13.4352L42.1246 13.5077Z" fill="#3661C7"></path><defs><linearGradient id="paint0_linear_22_59054" x1="11.2916" y1="18.662" x2="25.952" y2="44.8981" gradientUnits="userSpaceOnUse"><stop stop-color="#257AF1"></stop><stop offset="0.994792" stop-color="#0A5BCD"></stop></linearGradient></defs></svg> 