<?xml version="1.0" encoding="UTF-8"?> <svg xmlns="http://www.w3.org/2000/svg" width="44" height="44" viewBox="0 0 44 44" fill="none"><rect x="1" y="1" width="42" height="42" rx="10" fill="url(#paint0_linear_1174_8164)"></rect><rect x="1.48387" y="1.48387" width="41.0323" height="41.0323" rx="9.51613" stroke="black" stroke-opacity="0.08" stroke-width="0.967742"></rect><path fill-rule="evenodd" clip-rule="evenodd" d="M13.375 19.9272C13.375 15.9694 16.5839 12.7605 20.5417 12.7605C24.4994 12.7605 27.7083 15.9694 27.7083 19.9272C27.7083 23.8849 24.4994 27.0938 20.5417 27.0938C16.5839 27.0938 13.375 23.8849 13.375 19.9272ZM20.5417 10.7605C25.604 10.7605 29.7083 14.8648 29.7083 19.9272C29.7083 22.0981 28.9535 24.0929 27.692 25.6633L32.9154 30.8867C33.306 31.2772 33.306 31.9104 32.9154 32.3009C32.5249 32.6915 31.8918 32.6915 31.5012 32.3009L26.2778 27.0775C24.7074 28.339 22.7126 29.0938 20.5417 29.0938C15.4793 29.0938 11.375 24.9895 11.375 19.9272C11.375 14.8648 15.4793 10.7605 20.5417 10.7605Z" fill="white"></path><defs><linearGradient id="paint0_linear_1174_8164" x1="1" y1="1" x2="1" y2="43" gradientUnits="userSpaceOnUse"><stop stop-color="#2E59C6"></stop><stop offset="1" stop-color="#2950B3"></stop></linearGradient></defs></svg> 