<?xml version="1.0" encoding="UTF-8"?> <svg xmlns="http://www.w3.org/2000/svg" width="44" height="44" viewBox="0 0 44 44" fill="none"><rect x="1.48387" y="1.48387" width="41.0323" height="41.0323" rx="20.5161" fill="url(#paint0_linear_1174_8180)" stroke="#1A6ADA" stroke-width="0.967742"></rect><path d="M11 13.9688H17.6C18.767 13.9688 19.8861 14.3902 20.7113 15.1403C21.5364 15.8905 22 16.9079 22 17.9688V31.9688C22 31.1731 21.6523 30.41 21.0335 29.8474C20.4146 29.2848 19.5752 28.9688 18.7 28.9688H11V13.9688Z" stroke="white" stroke-width="2" stroke-linecap="round" stroke-linejoin="round"></path><path d="M33 13.9688H26.4C25.233 13.9688 24.1139 14.3902 23.2887 15.1403C22.4636 15.8905 22 16.9079 22 17.9688V31.9688C22 31.1731 22.3477 30.41 22.9665 29.8474C23.5854 29.2848 24.4248 28.9688 25.3 28.9688H33V13.9688Z" stroke="white" stroke-width="2" stroke-linecap="round" stroke-linejoin="round"></path><defs><linearGradient id="paint0_linear_1174_8180" x1="8" y1="4.96875" x2="39" y2="39.4688" gradientUnits="userSpaceOnUse"><stop stop-color="#1E72E8"></stop><stop offset="1" stop-color="#1466DA"></stop></linearGradient></defs></svg> 