<?xml version="1.0" encoding="UTF-8"?> <svg xmlns="http://www.w3.org/2000/svg" width="44" height="44" viewBox="0 0 44 44" fill="none"><circle cx="22" cy="22" r="21" fill="#3661C7"></circle><path d="M25.7341 14.5357C25.5092 14.4467 25.316 14.292 25.1791 14.0916C25.0423 13.8911 24.9682 13.654 24.9663 13.4108C24.9663 12.7394 25.5238 12.1933 26.2107 12.1933C26.3551 12.1933 26.4945 12.2183 26.6239 12.2622C26.6251 12.2584 26.6264 12.2572 26.6289 12.2584C30.5053 13.982 33.2008 17.8026 33.2008 22.2419C33.2008 28.2921 28.1857 33.1999 22.0008 33.1999C15.8159 33.1999 10.8008 28.2933 10.8008 22.2406C10.8008 17.8326 13.4602 14.0346 17.2943 12.2935C17.4491 12.2298 17.6149 12.1974 17.7821 12.1983C18.469 12.1983 19.0266 12.7432 19.0266 13.4146C19.0251 13.6564 18.9521 13.8923 18.8169 14.0922C18.6817 14.2921 18.4904 14.4469 18.2674 14.5369C15.3243 15.9048 13.2897 18.841 13.2897 22.2406C13.2897 26.948 17.1898 30.7648 22.0008 30.7648C26.8118 30.7648 30.7119 26.948 30.7119 22.2406C30.7119 18.841 28.6772 15.9036 25.7341 14.5357ZM22.0008 9.3999C22.3308 9.3999 22.6474 9.53188 22.8807 9.76679C23.1141 10.0017 23.2452 10.3203 23.2452 10.6525V19.421C23.2452 19.7532 23.1141 20.0718 22.8807 20.3067C22.6474 20.5416 22.3308 20.6736 22.0008 20.6736C21.6707 20.6736 21.3542 20.5416 21.1208 20.3067C20.8874 20.0718 20.7563 19.7532 20.7563 19.421V10.6525C20.7563 10.3203 20.8874 10.0017 21.1208 9.76679C21.3542 9.53188 21.6707 9.3999 22.0008 9.3999Z" fill="white"></path></svg> 