<?xml version="1.0" encoding="UTF-8"?> <svg xmlns="http://www.w3.org/2000/svg" width="44" height="44" viewBox="0 0 44 44" fill="none"><g id="icon_setting"><path id="icon_setting_2" fill-rule="evenodd" clip-rule="evenodd" d="M26.6714 43H17.3285C16.5159 43 15.8586 42.3482 15.8586 41.5423C15.8586 39.6661 14.8737 37.9772 13.2252 37.0298C11.5473 36.0677 9.54811 36.0635 7.87232 37.0173C7.17303 37.4171 6.28054 37.1797 5.87104 36.4842L1.20067 28.521C1.00328 28.1858 0.948677 27.788 1.04948 27.4132C1.15238 27.0363 1.40017 26.7177 1.73827 26.524C3.36366 25.6015 4.33385 23.9085 4.33385 21.999C4.33385 20.0894 3.36366 18.3985 1.73827 17.476C1.40017 17.2823 1.15238 16.9616 1.04948 16.5868C0.948677 16.212 1.00328 15.8142 1.20067 15.479L5.87104 7.51376C6.27844 6.81824 7.17093 6.58501 7.87232 6.98275C9.55021 7.9344 11.5494 7.93024 13.2252 6.97025C14.8737 6.02276 15.8586 4.33601 15.8586 2.45768C15.8586 1.65179 16.5159 1 17.3285 1H26.6714C27.4841 1 28.1414 1.65179 28.1414 2.45768C28.1414 4.33393 29.1263 6.02276 30.7747 6.97025C32.4484 7.92816 34.4497 7.93649 36.1276 6.98275C36.8311 6.58709 37.7215 6.82032 38.1289 7.51376L42.8014 15.479C42.9967 15.8142 43.0513 16.212 42.9505 16.5868C42.8497 16.9616 42.5998 17.2823 42.2617 17.476C40.6342 18.3985 39.6661 20.0894 39.6661 21.999C39.6661 23.9085 40.6342 25.6015 42.2617 26.524C42.5998 26.7177 42.8497 27.0363 42.9505 27.4132C43.0513 27.788 42.9967 28.1858 42.8014 28.521L38.1289 36.4842C37.7215 37.1776 36.8269 37.4129 36.1276 37.0173C34.4497 36.0635 32.4484 36.0698 30.7747 37.0298C29.1263 37.9772 28.1414 39.6661 28.1414 41.5423C28.1414 42.3482 27.4841 43 26.6714 43ZM21.7875 28.6507C18.004 28.6507 14.9248 25.5707 14.9248 21.7879C14.9248 18.0034 18.004 14.9252 21.7875 14.9252C25.571 14.9252 28.6502 18.0034 28.6502 21.7879C28.6502 25.5707 25.571 28.6507 21.7875 28.6507Z" fill="#3561C8"></path></g></svg> 