<svg version="1.1" id="레이어_1" xmlns="http://www.w3.org/2000/svg" x="0" y="0" viewBox="0 0 519 57" xml:space="preserve"><style>.st0{fill:#333130}</style><g id="gray_00000152959150216790183780000007156833010120102278_"><path class="st0" d="M386.03 37.18c0 10.59-7.4 18.95-17.7 18.95-5.33 0-9.48-2.44-12.29-6.07l-.3 4.07c-.07.67-.44 1.11-1.11 1.11h-4.07c-.67 0-1.11-.44-1.11-1.11V2.31c0-.67.44-1.11 1.11-1.11H355c.67 0 1.11.44 1.11 1.11v21.91c2.81-3.55 6.96-6 12.21-6 10.3.01 17.71 8.38 17.71 18.96zm-6.37-.07c0-7.33-5.11-12.88-12-12.88-6.81 0-11.85 5.85-11.85 12.88s5.03 12.96 11.85 12.96c6.89 0 12-5.56 12-12.96zm11.12.07c0-10.74 8.07-19.03 18.43-19.03 10.44 0 18.51 8.29 18.51 19.03s-8.07 19.03-18.51 19.03c-10.36 0-18.43-8.29-18.43-19.03zm30.5 0c0-7.55-5.26-12.96-12.07-12.96-6.74 0-12.07 5.4-12.07 12.96 0 7.55 5.33 12.96 12.07 12.96 6.81 0 12.07-5.41 12.07-12.96zm11.19 0c0-10.74 8.07-19.03 18.43-19.03 10.44 0 18.51 8.29 18.51 19.03s-8.07 19.03-18.51 19.03c-10.36 0-18.43-8.29-18.43-19.03zm30.5 0c0-7.55-5.26-12.96-12.07-12.96-6.74 0-12.07 5.4-12.07 12.96 0 7.55 5.33 12.96 12.07 12.96 6.81 0 12.07-5.41 12.07-12.96zm44.53 18.07h-4.89c-.59 0-.96-.15-1.33-.67l-12.51-16.14-6.37 6.66v9.03c0 .67-.44 1.11-1.11 1.11h-4.44c-.67 0-1.11-.44-1.11-1.11V2.31c0-.67.44-1.11 1.11-1.11h4.44c.67 0 1.11.44 1.11 1.11v34.87l16.66-17.62c.37-.44.81-.59 1.33-.59h5.03c.96 0 1.26.59.59 1.33l-13.25 13.92 15.4 19.69c.52.75.23 1.34-.66 1.34zM190.93 18.88h-8.76c-.59 0-1.11.3-1.34.89l-7.5 22.41-7.96-22.41c-.19-.54-.7-.9-1.27-.9h-8.36c-.57 0-1.08.36-1.27.9l-7.86 22.4-7.57-22.41c-.22-.59-.74-.89-1.34-.89h-8.76c-.82 0-1.19.44-.89 1.26l12.62 34.22c.22.59.74.89 1.34.89h8.54c.59 0 1.11-.3 1.34-.89l8.02-21.08 8.02 21.08c.22.59.74.89 1.34.89h8.61c.59 0 1.11-.3 1.34-.89l12.62-34.22c.28-.8-.09-1.25-.91-1.25zm42.5 14.84v20.41c0 .67-.45 1.11-1.11 1.11h-8.91c-.67 0-1.11-.45-1.11-1.11V35.95c0-5.86-3.27-7.57-6.23-7.57-4.97 0-7.05 4.9-7.05 6.68v19.07c0 .67-.45 1.11-1.11 1.11H199c-.67 0-1.11-.45-1.11-1.11V2.18c0-.67.45-1.11 1.11-1.11h8.91c.67 0 1.11.45 1.11 1.11V24.6c2.3-3.79 6.01-6.53 11.21-6.53 7.33-.01 13.2 5.93 13.2 15.65zm44.83-13.73v34.14c0 .67-.45 1.11-1.11 1.11h-8.09c-.67 0-1.04-.45-1.11-1.11l-.22-2.67c-2.52 2.82-5.94 4.75-10.39 4.75-10.09 0-17.52-8.46-17.52-19.07s7.42-19.07 17.52-19.07c4.3 0 7.79 2 10.39 4.97l.22-3.04c.07-.67.45-1.11 1.11-1.11h8.09c.67-.01 1.11.44 1.11 1.1zM267.4 37.06c0-4.96-3.59-9.16-8.4-9.16-4.89 0-8.48 3.97-8.48 9.16 0 5.27 3.59 9.24 8.48 9.24 4.81 0 8.4-4.27 8.4-9.24zm20.76-35.99h8.91c.67 0 1.11.45 1.11 1.11v51.95c0 .67-.45 1.11-1.11 1.11h-8.91c-.67 0-1.11-.45-1.11-1.11V2.18c-.01-.67.44-1.11 1.11-1.11zm49.77 40h-22.04c1.04 4.08 4.3 6.23 9.35 6.23 2.38 0 4.45-.52 7.05-2.15.67-.45 1.11-.37 1.63.15l3.86 3.71c.45.52.45 1.04-.15 1.63-3.49 3.49-8.24 5.57-13.51 5.57-11.43 0-19.3-8.39-19.3-19.07 0-10.69 7.87-19.07 18.48-19.07 10.54 0 17.29 8.39 17.29 18.41.01 3.03-.36 4.59-2.66 4.59zm-22.2-7.05h14.99c-.67-4.45-3.71-6.61-7.35-6.61-3.7.01-6.82 2.16-7.64 6.61z" id="text_00000008113147573328097410000011236002924102864044_"/></g><path class="st0" d="M53.79 53.86H16.41V2.5h10.23v41.78h27.14v9.58zm47.46-44.43l-7.37 7.23c-2.9-3.34-7.15-5.39-12.4-5.39-9.39 0-16.21 6.9-16.21 16.91 0 10.49 7.15 17.06 16.03 17.06 8.36 0 13.24-4.04 14.6-11.33H82.84v-8.55h23.62c.11.99.15 1.94.15 2.9 0 15.55-10.53 26.52-25.09 26.52-14.23 0-26.85-10.01-26.85-26.59 0-15.53 11.33-26.64 27.1-26.64 8.15 0 14.93 2.93 19.48 7.88z"/></svg>