<?xml version="1.0" encoding="UTF-8"?>
<svg width="165" height="80" viewBox="0 0 165 80" fill="none" xmlns="http://www.w3.org/2000/svg">
<g clip-path="url(#clip0_448_25257)">
<path d="M163.523 41.4253C163.523 45.0969 160.95 48.0076 157.372 48.0076C156.552 48.0162 155.741 47.8318 155.005 47.4693C154.269 47.1068 153.629 46.5763 153.136 45.9207V52.197C153.138 52.2481 153.13 52.2991 153.111 52.3467C153.093 52.3944 153.064 52.4377 153.028 52.4738C152.992 52.51 152.949 52.5382 152.901 52.5567C152.854 52.5753 152.803 52.5837 152.751 52.5815H151.182C151.131 52.5849 151.079 52.5774 151.031 52.5593C150.983 52.5412 150.939 52.513 150.903 52.4766C150.866 52.4402 150.838 52.3964 150.82 52.3482C150.802 52.2999 150.795 52.2484 150.798 52.197V35.4864C150.793 35.4343 150.8 35.3819 150.818 35.3327C150.835 35.2836 150.863 35.2387 150.9 35.2014C150.936 35.1641 150.98 35.1352 151.029 35.1167C151.078 35.0981 151.13 35.0905 151.182 35.0941H152.595C152.83 35.0941 152.955 35.251 152.979 35.4864L153.057 36.9769C153.556 36.3102 154.204 35.7698 154.949 35.3992C155.695 35.0286 156.517 34.8381 157.349 34.843C160.95 34.8587 163.523 37.7458 163.523 41.4253ZM161.311 41.4253C161.354 40.8556 161.279 40.2831 161.09 39.7438C160.902 39.2044 160.604 38.7098 160.215 38.2909C159.827 37.8719 159.356 37.5378 158.833 37.3092C158.309 37.0807 157.744 36.9627 157.172 36.9627C156.601 36.9627 156.036 37.0807 155.512 37.3092C154.989 37.5378 154.518 37.8719 154.129 38.2909C153.741 38.7098 153.443 39.2044 153.255 39.7438C153.066 40.2831 152.991 40.8556 153.034 41.4253C153.004 41.9918 153.088 42.5585 153.279 43.0925C153.47 43.6266 153.766 44.1173 154.148 44.5363C154.531 44.9552 154.992 45.294 155.507 45.533C156.021 45.772 156.578 45.9065 157.145 45.9286C159.538 45.8972 161.311 43.9672 161.311 41.3939V41.4253Z" fill="white"/>
<path d="M146.028 28.9511H147.597C147.648 28.9489 147.699 28.9573 147.747 28.9758C147.794 28.9943 147.838 29.0226 147.874 29.0587C147.91 29.0949 147.938 29.1382 147.957 29.1858C147.975 29.2335 147.984 29.2844 147.981 29.3355V47.3329C147.985 47.3847 147.977 47.4364 147.959 47.485C147.941 47.5336 147.913 47.5779 147.877 47.6149C147.841 47.6519 147.797 47.6808 147.749 47.6998C147.7 47.7188 147.649 47.7275 147.597 47.7252H146.028C145.976 47.7288 145.924 47.7211 145.875 47.7025C145.826 47.684 145.782 47.655 145.745 47.6178C145.709 47.5805 145.681 47.5357 145.663 47.4865C145.646 47.4374 145.639 47.3849 145.644 47.3329V29.3669C145.635 29.3131 145.639 29.258 145.655 29.2059C145.671 29.1538 145.698 29.1059 145.735 29.0659C145.772 29.0259 145.818 28.9948 145.868 28.9749C145.919 28.955 145.974 28.9469 146.028 28.9511Z" fill="white"/>
<path d="M143.431 41.0095C143.431 41.9117 143.329 42.3511 142.647 42.3511H133.538C133.657 43.4232 134.181 44.4092 135.004 45.1066C135.827 45.804 136.886 46.1598 137.963 46.1011C139.146 46.1156 140.295 45.7066 141.203 44.9479C141.384 44.791 141.54 44.736 141.744 44.9479L142.411 45.5677C142.457 45.6021 142.494 45.6465 142.519 45.6976C142.544 45.7486 142.558 45.8049 142.558 45.8619C142.558 45.9189 142.544 45.9752 142.519 46.0262C142.494 46.0773 142.457 46.1217 142.411 46.1561C141.497 47.0831 140.325 47.7142 139.048 47.968C137.771 48.2217 136.447 48.0862 135.248 47.5791C134.049 47.072 133.029 46.2166 132.322 45.1237C131.614 44.0308 131.251 42.7506 131.279 41.4488C131.279 37.7458 133.852 34.843 137.5 34.843C141.148 34.843 143.431 37.7458 143.431 41.0095ZM133.554 40.68H141.399C141.391 39.6569 140.978 38.6788 140.25 37.9598C139.522 37.2408 138.539 36.8394 137.516 36.8436C135.358 36.8436 133.813 38.4127 133.538 40.68H133.554Z" fill="white"/>
<path d="M129.082 39.9346V47.3329C129.085 47.3846 129.078 47.4364 129.06 47.485C129.042 47.5336 129.014 47.5778 128.977 47.6148C128.941 47.6519 128.897 47.6808 128.849 47.6998C128.801 47.7188 128.749 47.7275 128.698 47.7252H127.128C127.077 47.7275 127.025 47.7188 126.977 47.6998C126.929 47.6808 126.885 47.6519 126.849 47.6148C126.812 47.5778 126.784 47.5336 126.766 47.485C126.748 47.4364 126.741 47.3846 126.744 47.3329V40.1857C126.744 38.0047 125.638 36.922 123.99 36.922C123.169 36.9581 122.381 37.2543 121.74 37.7676C121.098 38.2809 120.636 38.9848 120.421 39.7778V47.3329C120.424 47.3846 120.416 47.4364 120.398 47.485C120.38 47.5336 120.352 47.5778 120.316 47.6148C120.28 47.6519 120.236 47.6808 120.188 47.6998C120.14 47.7188 120.088 47.7275 120.036 47.7252H118.467C118.415 47.7275 118.364 47.7188 118.315 47.6998C118.267 47.6808 118.224 47.6519 118.187 47.6148C118.151 47.5778 118.123 47.5336 118.105 47.485C118.087 47.4364 118.079 47.3846 118.083 47.3329V29.3669C118.081 29.3158 118.089 29.2648 118.107 29.2172C118.126 29.1695 118.154 29.1263 118.19 29.0901C118.227 29.054 118.27 29.0257 118.317 29.0072C118.365 28.9886 118.416 28.9802 118.467 28.9825H120.036C120.087 28.9802 120.138 28.9886 120.186 29.0072C120.234 29.0257 120.277 29.054 120.313 29.0901C120.349 29.1263 120.377 29.1695 120.396 29.2172C120.414 29.2648 120.423 29.3158 120.421 29.3669V37.2123C120.865 36.4995 121.482 35.9103 122.214 35.4989C122.946 35.0875 123.77 34.8673 124.61 34.8587C127.262 34.8587 129.082 36.5611 129.082 39.9346Z" fill="white"/>
<path d="M62.5794 35.1361H59.5397C59.4401 35.1319 59.3419 35.1596 59.2591 35.215C59.1764 35.2704 59.1134 35.3508 59.0794 35.4444L56.4739 43.213L53.7164 35.4487C53.6851 35.3582 53.6266 35.2796 53.5488 35.2236C53.4711 35.1676 53.378 35.1371 53.2822 35.1361H50.3858C50.29 35.1371 50.1969 35.1676 50.1191 35.2236C50.0414 35.2796 49.9829 35.3582 49.9515 35.4487L47.2288 43.213L44.6233 35.4444C44.5879 35.3508 44.524 35.2707 44.4407 35.2154C44.3573 35.1601 44.2587 35.1323 44.1587 35.1361H41.119C40.8367 35.1361 40.6847 35.2924 40.8107 35.5703L45.1835 47.4252C45.2181 47.5185 45.2812 47.5984 45.3638 47.6538C45.4465 47.7091 45.5444 47.737 45.6438 47.7335H48.601C48.7011 47.738 48.8001 47.7105 48.8836 47.6551C48.9671 47.5997 49.0308 47.5192 49.0657 47.4252L51.8448 40.1212L54.6197 47.4252C54.6545 47.5192 54.7183 47.5997 54.8018 47.6551C54.8853 47.7105 54.9842 47.738 55.0843 47.7335H58.0676C58.1671 47.7377 58.2654 47.71 58.3481 47.6546C58.4309 47.5992 58.4938 47.5188 58.5279 47.4252L62.9007 35.5703C62.9919 35.2924 62.8616 35.1361 62.5794 35.1361Z" fill="white"/>
<path d="M77.3003 40.2819V47.3514C77.3034 47.4026 77.2957 47.4538 77.2777 47.5019C77.2596 47.5499 77.2316 47.5935 77.1956 47.63C77.1595 47.6665 77.1162 47.6949 77.0684 47.7135C77.0206 47.7321 76.9694 47.7404 76.9182 47.7379H73.8307C73.7793 47.7403 73.7279 47.732 73.6799 47.7135C73.6319 47.695 73.5883 47.6666 73.5519 47.6302C73.5155 47.5938 73.4871 47.5502 73.4686 47.5022C73.45 47.4542 73.4417 47.4028 73.4442 47.3514V41.0505C73.4442 39.0182 72.3152 38.445 71.273 38.445C69.536 38.445 68.8282 40.1429 68.8282 40.7595V47.3688C68.8313 47.4203 68.8235 47.472 68.8052 47.5203C68.7869 47.5686 68.7586 47.6125 68.722 47.6491C68.6855 47.6856 68.6416 47.714 68.5933 47.7323C68.5449 47.7506 68.4933 47.7584 68.4417 47.7552H65.3585C65.307 47.7584 65.2553 47.7506 65.207 47.7323C65.1586 47.714 65.1148 47.6856 65.0782 47.6491C65.0417 47.6125 65.0133 47.5686 64.995 47.5203C64.9767 47.472 64.9689 47.4203 64.9721 47.3688V29.3519C64.9689 29.3003 64.9767 29.2487 64.995 29.2003C65.0133 29.152 65.0417 29.1081 65.0782 29.0716C65.1148 29.035 65.1586 29.0067 65.207 28.9884C65.2553 28.9701 65.307 28.9622 65.3585 28.9654H68.4417C68.4933 28.9622 68.5449 28.9701 68.5933 28.9884C68.6416 29.0067 68.6855 29.035 68.722 29.0716C68.7586 29.1081 68.7869 29.152 68.8052 29.2003C68.8235 29.2487 68.8313 29.3003 68.8282 29.3519V37.1162C69.2136 36.4262 69.7772 35.8523 70.46 35.4544C71.1429 35.0564 71.92 34.849 72.7103 34.8538C75.2724 34.8538 77.3003 36.9121 77.3003 40.2819Z" fill="white"/>
<path d="M92.8376 35.5225V47.3513C92.8401 47.4028 92.8318 47.4541 92.8132 47.5021C92.7947 47.5501 92.7663 47.5937 92.7299 47.6301C92.6935 47.6665 92.6499 47.6949 92.6019 47.7135C92.5539 47.732 92.5025 47.7403 92.4511 47.7378H89.6459C89.5952 47.7384 89.5449 47.7288 89.4979 47.7095C89.451 47.6903 89.4085 47.6618 89.3728 47.6257C89.3371 47.5896 89.3091 47.5467 89.2904 47.4996C89.2716 47.4525 89.2626 47.4021 89.2638 47.3513L89.1856 46.4264C88.7416 46.9463 88.1894 47.363 87.5676 47.6473C86.9458 47.9316 86.2694 48.0766 85.5857 48.0722C82.0857 48.0722 79.5063 45.141 79.5063 41.463C79.5063 37.7849 82.077 34.8538 85.5857 34.8538C86.2764 34.8614 86.957 35.021 87.5792 35.3212C88.2013 35.6214 88.7498 36.0548 89.1856 36.5907L89.2638 35.5355C89.2626 35.4848 89.2716 35.4344 89.2904 35.3873C89.3091 35.3401 89.3371 35.2972 89.3728 35.2612C89.4085 35.2251 89.451 35.1966 89.4979 35.1773C89.5449 35.1581 89.5952 35.1484 89.6459 35.149H92.4511C92.5014 35.1467 92.5516 35.1546 92.5987 35.1724C92.6458 35.1901 92.6888 35.2173 92.725 35.2523C92.7612 35.2873 92.7899 35.3293 92.8092 35.3758C92.8286 35.4222 92.8382 35.4722 92.8376 35.5225ZM89.0727 41.4369C89.0727 39.6999 87.8307 38.2626 86.1632 38.2626C84.4957 38.2626 83.2234 39.6391 83.2234 41.4369C83.2234 43.2347 84.4697 44.6373 86.1632 44.6373C87.8568 44.6373 89.0727 43.1565 89.0727 41.4369Z" fill="white"/>
<path d="M96.2639 28.9654H99.3513C99.4027 28.9629 99.4541 28.9712 99.5021 28.9898C99.5501 29.0083 99.5937 29.0367 99.6301 29.0731C99.6665 29.1095 99.6949 29.1531 99.7135 29.2011C99.732 29.2491 99.7403 29.3005 99.7378 29.3519V47.3514C99.7403 47.4028 99.732 47.4542 99.7135 47.5022C99.6949 47.5502 99.6665 47.5938 99.6301 47.6302C99.5937 47.6666 99.5501 47.695 99.5021 47.7135C99.4541 47.732 99.4027 47.7403 99.3513 47.7379H96.2639C96.2124 47.7403 96.1611 47.732 96.1131 47.7135C96.0651 47.695 96.0214 47.6666 95.9851 47.6302C95.9487 47.5938 95.9203 47.5502 95.9017 47.5022C95.8832 47.4542 95.8749 47.4028 95.8774 47.3514V29.3519C95.8749 29.3005 95.8832 29.2491 95.9017 29.2011C95.9203 29.1531 95.9487 29.1095 95.9851 29.0731C96.0214 29.0367 96.0651 29.0083 96.1131 28.9898C96.1611 28.9712 96.2124 28.9629 96.2639 28.9654Z" fill="white"/>
<path d="M113.508 42.8265H105.869C106.23 44.2421 107.363 44.9977 109.113 44.9977C109.983 45.0048 110.835 44.7456 111.554 44.2552C111.593 44.2188 111.639 44.1909 111.689 44.1735C111.74 44.156 111.793 44.1494 111.847 44.1539C111.9 44.1584 111.951 44.1739 111.998 44.1996C112.045 44.2253 112.086 44.2605 112.118 44.3029L113.456 45.6057C113.612 45.7837 113.612 45.9618 113.404 46.1702C112.788 46.7801 112.058 47.2622 111.255 47.5887C110.453 47.9151 109.593 48.0795 108.727 48.0722C104.766 48.0722 102.039 45.1671 102.039 41.463C102.039 37.7589 104.766 34.8538 108.444 34.8538C112.123 34.8538 114.433 37.7589 114.433 41.2328C114.433 42.288 114.307 42.8265 113.508 42.8265ZM105.817 40.3817H111.028C110.794 38.8401 109.725 38.0932 108.479 38.0932C107.829 38.0683 107.193 38.2903 106.699 38.7148C106.205 39.1393 105.89 39.7347 105.817 40.3817Z" fill="white"/>
<g clip-path="url(#clip1_448_25257)">
<path d="M5.62007 33.1534H6.90897C9.49064 33.1534 11.844 33.8385 13.9031 35.1932L14.7585 35.7583L14.7353 29.7396C14.6385 29.7396 14.5417 29.7086 14.4605 29.6467C13.3728 28.8377 10.4428 27.5682 7.25345 27.5333H0.940549C0.421892 27.5333 0 27.9591 0 28.4778V33.1534H5.62007Z" fill="url(#paint0_linear_448_25257)"/>
<path d="M5.62007 44.6761V33.1534H0V49.3518C0 49.8743 0.421892 50.2962 0.94442 50.2962H6.90897C10.8299 50.2962 13.0129 52.274 14.1973 53.4855C14.3405 53.6326 14.5263 53.7061 14.712 53.71H14.7353L14.7624 46.7082C12.4013 45.3612 9.76158 44.68 6.90897 44.68H5.62007V44.6761Z" fill="url(#paint1_linear_448_25257)"/>
<path d="M28.5222 27.5333H22.3371C19.1322 27.5333 16.0784 28.8919 15.0101 29.6505C14.9249 29.7086 14.8282 29.7396 14.7314 29.7396V35.7428L14.7546 35.7583L15.61 35.1971C17.6846 33.8424 20.0225 33.1534 22.5577 33.1534H23.8466V44.6761H22.5577C19.7515 44.6761 17.1312 45.3573 14.7585 46.7043C14.7508 46.7004 14.7391 46.6965 14.7314 46.6888V53.7061C14.9249 53.7061 15.1185 53.6326 15.2655 53.4817C16.4074 52.3205 18.6871 50.2923 22.5577 50.2923H28.5222C29.0448 50.2923 29.4667 49.8704 29.4667 49.3479V28.4778C29.4667 27.9552 29.0448 27.5333 28.5222 27.5333Z" fill="white"/>
</g>
</g>
<defs>
<linearGradient id="paint0_linear_448_25257" x1="5.66667" y1="31.1436" x2="15.3" y2="31.7103" gradientUnits="userSpaceOnUse">
<stop stop-color="white"/>
<stop offset="1" stop-color="white" stop-opacity="0.65"/>
</linearGradient>
<linearGradient id="paint1_linear_448_25257" x1="2.83333" y1="44.7435" x2="2.83333" y2="32.8435" gradientUnits="userSpaceOnUse">
<stop stop-color="white"/>
<stop offset="1" stop-color="white" stop-opacity="0.65"/>
</linearGradient>
<clipPath id="clip0_448_25257">
<rect width="165" height="38" fill="white" transform="translate(0 21)"/>
</clipPath>
<clipPath id="clip1_448_25257">
<rect width="29.4667" height="26.1767" fill="white" transform="translate(0 27.5333)"/>
</clipPath>
</defs>
</svg>
