<?xml version="1.0" encoding="UTF-8"?> <svg xmlns="http://www.w3.org/2000/svg" width="37" height="42" viewBox="0 0 37 42" fill="none"><path d="M10 2H26.4C30.8183 2 34.4 5.58172 34.4 10V32C34.4 36.4183 30.8183 40 26.4 40H9.99999C5.58172 40 2 36.4183 2 32V10C2 5.58172 5.58172 2 10 2Z" stroke="#0066DC" stroke-width="4"></path><path fill-rule="evenodd" clip-rule="evenodd" d="M14 9.80002C14 9.02683 14.6268 8.40002 15.4 8.40002H21C21.7732 8.40002 22.4 9.02683 22.4 9.80002V9.80002C22.4 10.5732 21.7732 11.2 21 11.2H15.4C14.6268 11.2 14 10.5732 14 9.80002V9.80002Z" fill="#0066DC" stroke="#0066DC" stroke-width="2"></path></svg> 