<?xml version="1.0" encoding="utf-8"?>
<!-- Generator: Adobe Illustrator 18.0.0, SVG Export Plug-In . SVG Version: 6.00 Build 0)  -->
<!DOCTYPE svg PUBLIC "-//W3C//DTD SVG 1.1//EN" "http://www.w3.org/Graphics/SVG/1.1/DTD/svg11.dtd">
<svg version="1.1" id="레이어_1" xmlns="http://www.w3.org/2000/svg" xmlns:xlink="http://www.w3.org/1999/xlink" x="0px"
	 y="0px" viewBox="116.4 359.3 378.7 72.7" enable-background="new 116.4 359.3 378.7 72.7" xml:space="preserve">
<g id="NAVER_Logo">
	<g>
		<path fill="#03CF5D" d="M225.4,359.3L196.9,432h24.2l3.4-9.6h27.3l3.4,9.6h24.2L251,359.3H225.4L225.4,359.3z M230.1,404.9
			l8.1-22.7l8.1,22.7H230.1z"/>
		<polygon fill="#03CF5D" points="380.4,404.4 413.5,404.4 413.5,386.9 380.4,386.9 380.4,377.1 413.9,377.1 413.9,359.3 
			357.2,359.3 357.2,432 414.6,432 414.6,414.2 380.4,414.2 		"/>
		<polygon fill="#03CF5D" points="308.4,407.2 291.4,359.3 267.1,359.3 295.6,432 321.2,432 349.7,359.3 325.5,359.3 		"/>
		<polygon fill="#03CF5D" points="165.9,398.2 138.8,359.3 116.4,359.3 116.4,432 139.9,432 139.9,393.1 167,432 189.4,432 
			189.4,359.3 165.9,359.3 		"/>
		<path fill="#03CF5D" d="M476.8,407.1l2.2-0.9c8.4-3.6,12.7-11.2,12.7-20.9c0-9.2-3.3-16-10-20.2c-6.1-3.9-14.1-5.7-25.1-5.7H426
			V432h22.8v-20.3h8.2l13.9,20.3h24.2L476.8,407.1z M460.9,393.2h-12.5v-15.3h12.5c4.2,0,7.6,3.4,7.6,7.6S465.2,393.2,460.9,393.2z"
			/>
	</g>
</g>
</svg>
