<?xml version="1.0" encoding="UTF-8"?> <svg xmlns="http://www.w3.org/2000/svg" width="24" height="24" viewBox="0 0 24 24" fill="none"><g id="omnibox_ic_search_2"><path id="Union" fill-rule="evenodd" clip-rule="evenodd" d="M4.5 10.25C4.5 6.79846 7.29846 4 10.75 4C14.2015 4 17 6.79846 17 10.25C17 13.7015 14.2015 16.5 10.75 16.5C7.29846 16.5 4.5 13.7015 4.5 10.25ZM10.75 2.5C15.03 2.5 18.5 5.97004 18.5 10.25C18.5 12.1199 17.8376 13.8352 16.7348 15.1741L21.2803 19.7197C21.5732 20.0126 21.5732 20.4874 21.2803 20.7803C20.9874 21.0732 20.5126 21.0732 20.2197 20.7803L15.6741 16.2348C14.3352 17.3376 12.6199 18 10.75 18C6.47004 18 3 14.53 3 10.25C3 5.97004 6.47004 2.5 10.75 2.5Z" fill="#222222"></path></g></svg> 