<?xml version="1.0" encoding="UTF-8"?> <svg xmlns="http://www.w3.org/2000/svg" width="42" height="42" viewBox="0 0 42 42" fill="none"><rect width="42" height="42" rx="4" fill="url(#paint0_linear_2607_199)"></rect><path fill-rule="evenodd" clip-rule="evenodd" d="M33.5944 13.2738C33.5944 12.9169 33.2893 12.6122 32.928 12.6071C28.0162 12.541 26.0342 12.8959 22.9912 15.2318C22.5847 15.5456 21.4575 16.3025 20.9999 16.7015C20.3315 16.119 19.7283 15.6378 19.1602 15.2318C16.4776 13.3159 13.8972 12.6031 9.64087 12.6031C9.46022 12.6031 9.27455 12.6051 9.07382 12.6071C8.71151 12.6122 8.40641 12.9169 8.40641 13.2718L8.40039 19.9441C8.40039 22.1487 8.98751 24.3282 10.0995 26.247C11.2025 28.1549 12.7922 29.7469 14.6971 30.8507C16.6141 31.9625 18.7939 32.55 21.0019 32.55C23.2059 32.55 25.3847 31.9615 27.3026 30.8487C29.2075 29.7459 30.7973 28.1549 31.9023 26.247C33.0123 24.3262 33.6004 22.1466 33.6004 19.9441L33.5944 13.2738Z" fill="white"></path><defs><linearGradient id="paint0_linear_2607_199" x1="-21" y1="21" x2="21" y2="63" gradientUnits="userSpaceOnUse"><stop stop-color="#FD6F62"></stop><stop offset="1" stop-color="#FF5659"></stop></linearGradient></defs></svg> 