<?xml version="1.0" encoding="UTF-8"?> <svg xmlns="http://www.w3.org/2000/svg" width="42" height="42" viewBox="0 0 42 42" fill="none"><path fill-rule="evenodd" clip-rule="evenodd" d="M31.4996 28.3501C29.7597 31.4067 24.7958 34.0709 21.0153 34.0715V21.4528V2.67686H18.971C9.323 2.67686 6.43757 2.17881 2.09961 1.05005C2.09961 1.05005 2.19427 5.24822 6.63385 7.55375C6.63385 7.55375 7.0148 7.73417 7.56939 7.97299L7.43814 8.12102C4.13038 11.5941 2.09961 16.2872 2.09961 21.4528V40.3679H21.0153C27.5984 40.3679 32.9782 37.0972 36.1077 31.8391L31.4996 28.3501Z" fill="#00A2FF"></path><path fill-rule="evenodd" clip-rule="evenodd" d="M20.9994 34.0717C14.0407 34.0717 8.39941 28.4305 8.39941 21.4717C8.39941 14.513 14.0407 8.8717 20.9994 8.8717" fill="#FAFDFD"></path><path fill-rule="evenodd" clip-rule="evenodd" d="M21 21.5671H39.9C39.9 10.3278 32.1541 2.66711 21 2.66711V21.5671Z" fill="#1EDA69"></path><path fill-rule="evenodd" clip-rule="evenodd" d="M18.2696 18.0068C18.2696 19.5724 17.0003 20.8418 15.4346 20.8418C13.8689 20.8418 12.5996 19.5724 12.5996 18.0068C12.5996 16.4411 13.8689 15.1718 15.4346 15.1718C17.0003 15.1718 18.2696 16.4411 18.2696 18.0068" fill="#50505F"></path><path fill-rule="evenodd" clip-rule="evenodd" d="M20.9997 22.05L20.9854 34.0717C24.7498 34.0717 29.7672 31.4067 31.4997 28.35L20.9997 22.05Z" fill="#FFC600"></path></svg> 