<svg data-name="Layer 1" xmlns="http://www.w3.org/2000/svg" viewBox="0 0 134.87 24.07"><path d="M27.49 7.78h-3.82a.6.6 0 00-.59.39l-3.27 9.78-3.47-9.78a.59.59 0 00-.56-.39h-3.69a.57.57 0 00-.55.39l-3.43 9.78L4.8 8.17a.59.59 0 00-.58-.39H.39c-.35 0-.51.19-.38.55l5.5 14.93a.6.6 0 00.59.39h3.72a.6.6 0 00.59-.39l3.5-9.2 3.5 9.2a.58.58 0 00.58.39h3.76a.59.59 0 00.58-.39l5.55-14.92c.13-.37-.03-.56-.39-.56zm18.6 6.48v8.91a.45.45 0 01-.48.48h-3.89a.46.46 0 01-.49-.48v-7.94c0-2.56-1.42-3.31-2.72-3.31a3.23 3.23 0 00-3.08 2.92v8.33a.45.45 0 01-.49.48h-3.88a.45.45 0 01-.49-.48V.49a.46.46 0 01.49-.49h3.88a.46.46 0 01.49.49v9.78a5.58 5.58 0 014.89-2.85c3.16 0 5.77 2.59 5.77 6.84zm19.52-6v14.91a.45.45 0 01-.48.48H61.6a.48.48 0 01-.49-.48l-.1-1.17a5.9 5.9 0 01-4.53 2.07c-4.41 0-7.65-3.69-7.65-8.32s3.24-8.33 7.65-8.33a5.9 5.9 0 014.53 2.17l.1-1.33a.48.48 0 01.49-.48h3.49a.45.45 0 01.52.48zm-4.74 7.45a3.82 3.82 0 00-3.66-4 4 4 0 000 8 3.85 3.85 0 003.66-4zM69.93 0h3.89a.46.46 0 01.49.49v22.68a.46.46 0 01-.49.48h-3.89a.45.45 0 01-.48-.48V.49a.45.45 0 01.48-.49zm21.73 17.46h-9.57c.45 1.79 1.88 2.73 4.08 2.73a5.42 5.42 0 003.08-.94.47.47 0 01.71.06l1.69 1.62a.46.46 0 01-.07.71 8.23 8.23 0 01-5.9 2.43 8.33 8.33 0 01-.35-16.65c4.6 0 7.55 3.66 7.55 8-.05 1.36-.21 2.04-1.22 2.04zm-9.69-3.07h6.55a3.11 3.11 0 00-3.21-2.89 3.25 3.25 0 00-3.34 2.89zm14.74-1.43a11 11 0 1111.05 11.11 11.05 11.05 0 01-11.05-11.11zm19.25 0a8.21 8.21 0 10-8.2 8.37 8.23 8.23 0 008.2-8.37zm18.92 5.03c0 3.55-3.31 6.08-7.16 6.08a8.77 8.77 0 01-6.89-3.3.44.44 0 01.07-.62l1.14-1.17a.47.47 0 01.68 0 6.78 6.78 0 005 2.38c2.59 0 4.32-1.54 4.32-3.52 0-4.84-10.84-3.42-10.84-10.4 0-3.33 2.81-5.65 6.36-5.65a8.3 8.3 0 016.24 2.91.4.4 0 010 .64l-1 1.11c-.22.25-.44.28-.65.07a6.34 6.34 0 00-4.54-2.07c-2.07 0-3.61 1.14-3.61 3-.02 4.8 10.88 3.2 10.88 10.54z"/></svg>