<?xml version="1.0" encoding="utf-8"?>
<!-- Generator: Adobe Illustrator 18.0.0, SVG Export Plug-In . SVG Version: 6.00 Build 0)  -->
<!DOCTYPE svg PUBLIC "-//W3C//DTD SVG 1.1//EN" "http://www.w3.org/Graphics/SVG/1.1/DTD/svg11.dtd">
<svg version="1.1" id="레이어_1" xmlns="http://www.w3.org/2000/svg" xmlns:xlink="http://www.w3.org/1999/xlink" x="0px"
	 y="0px" viewBox="-4.8 7.5 216.2 56.1" enable-background="new -4.8 7.5 216.2 56.1" xml:space="preserve">
<path fill="#333333" d="M59.2,25.6h-8.9c-0.3,0-0.6,0.1-0.8,0.2c-0.2,0.2-0.4,0.4-0.5,0.7l-7.6,22.8l-8.1-22.8
	c-0.1-0.3-0.3-0.5-0.5-0.7c-0.2-0.2-0.5-0.3-0.8-0.3h-8.5c-0.3,0-0.6,0.1-0.8,0.3c-0.2,0.2-0.4,0.4-0.5,0.7l-8,22.8L6.5,26.5
	c-0.1-0.3-0.3-0.5-0.5-0.7c-0.2-0.2-0.5-0.2-0.8-0.2h-8.9c-0.8,0-1.3,0.5-0.9,1.3L8.1,61.7c0.1,0.3,0.3,0.5,0.5,0.7
	c0.2,0.2,0.5,0.2,0.8,0.2h8.7c0.3,0,0.6-0.1,0.8-0.2c0.2-0.2,0.4-0.4,0.5-0.7l8.2-21.4l8.1,21.4c0.1,0.3,0.3,0.5,0.5,0.7
	c0.2,0.2,0.5,0.2,0.8,0.2h8.8c0.3,0,0.6-0.1,0.8-0.2c0.2-0.2,0.4-0.4,0.5-0.7l12.8-34.8C60.4,26.1,60,25.6,59.2,25.6z"/>
<path fill="#333333" d="M102.4,40.7v20.7c0,0.2,0,0.3-0.1,0.4c-0.1,0.1-0.1,0.3-0.2,0.4c-0.1,0.1-0.2,0.2-0.4,0.2
	c-0.1,0.1-0.3,0.1-0.4,0.1h-9.1c-0.2,0-0.3,0-0.4-0.1c-0.1-0.1-0.3-0.1-0.4-0.2s-0.2-0.2-0.2-0.4c-0.1-0.1-0.1-0.3-0.1-0.4V43
	c0-6-3.3-7.6-6.4-7.6c-5.1,0-7.2,5-7.2,6.8v19.4c0,0.2,0,0.3-0.1,0.4c-0.1,0.1-0.1,0.3-0.2,0.4c-0.1,0.1-0.2,0.2-0.4,0.2
	c-0.1,0.1-0.3,0.1-0.4,0.1h-9c-0.2,0-0.3,0-0.4-0.1c-0.1-0.1-0.3-0.1-0.4-0.2c-0.1-0.1-0.2-0.2-0.2-0.4c-0.1-0.1-0.1-0.3-0.1-0.4
	V8.7c0-0.2,0-0.3,0.1-0.4c0.1-0.1,0.1-0.3,0.2-0.4c0.1-0.1,0.2-0.2,0.4-0.2c0.1-0.1,0.3-0.1,0.4-0.1h9c0.2,0,0.3,0,0.4,0.1
	c0.1,0.1,0.3,0.1,0.4,0.2c0.1,0.1,0.2,0.2,0.2,0.4c0.1,0.1,0.1,0.3,0.1,0.4v22.8c1.1-2,2.8-3.7,4.8-4.9c2-1.2,4.3-1.8,6.6-1.8
	C96.4,24.8,102.4,30.9,102.4,40.7z"/>
<path fill="#333333" d="M148,26.8v34.7c0,0.2,0,0.3-0.1,0.4c-0.1,0.1-0.1,0.3-0.2,0.4c-0.1,0.1-0.2,0.2-0.4,0.2
	c-0.1,0.1-0.3,0.1-0.4,0.1h-8.2c-0.1,0-0.3,0-0.4-0.1c-0.1-0.1-0.3-0.1-0.4-0.2c-0.1-0.1-0.2-0.2-0.2-0.4c-0.1-0.1-0.1-0.3-0.1-0.4
	l-0.2-2.7c-1.3,1.5-2.9,2.7-4.7,3.6c-1.8,0.8-3.8,1.3-5.8,1.2c-10.3,0-17.8-8.6-17.8-19.4c0-10.8,7.5-19.4,17.8-19.4
	c2,0,4,0.5,5.8,1.4c1.8,0.9,3.4,2.2,4.7,3.7l0.2-3.1c0-0.1,0-0.3,0.1-0.4c0.1-0.1,0.1-0.3,0.2-0.4c0.1-0.1,0.2-0.2,0.4-0.2
	c0.1-0.1,0.3-0.1,0.4-0.1h8.2c0.1,0,0.3,0,0.4,0.1c0.1,0.1,0.3,0.1,0.4,0.2c0.1,0.1,0.2,0.2,0.2,0.4C147.9,26.5,148,26.6,148,26.8z
	 M136.9,44.1c0-5.1-3.6-9.3-8.5-9.3c-4.9,0-8.6,4-8.6,9.3s3.7,9.4,8.6,9.4C133.3,53.5,136.9,49.2,136.9,44.1z"/>
<path fill="#333333" d="M158,7.5h9.1c0.2,0,0.3,0,0.4,0.1c0.1,0.1,0.3,0.1,0.4,0.2c0.1,0.1,0.2,0.2,0.2,0.4c0.1,0.1,0.1,0.3,0.1,0.4
	v52.8c0,0.2,0,0.3-0.1,0.4c-0.1,0.1-0.1,0.3-0.2,0.4s-0.2,0.2-0.4,0.2c-0.1,0.1-0.3,0.1-0.4,0.1H158c-0.2,0-0.3,0-0.4-0.1
	c-0.1-0.1-0.3-0.1-0.4-0.2s-0.2-0.2-0.2-0.4c-0.1-0.1-0.1-0.3-0.1-0.4V8.7c0-0.2,0-0.3,0.1-0.4c0.1-0.1,0.1-0.3,0.2-0.4
	c0.1-0.1,0.2-0.2,0.4-0.2C157.7,7.6,157.9,7.5,158,7.5z"/>
<path fill="#333333" d="M208.6,48.2h-22.4c1.1,4.2,4.4,6.4,9.5,6.4c2.6,0,5.1-0.7,7.2-2.2c0.1-0.1,0.2-0.2,0.4-0.2
	c0.1-0.1,0.3-0.1,0.5-0.1c0.2,0,0.3,0.1,0.4,0.1c0.1,0.1,0.3,0.2,0.4,0.3l3.9,3.8c0.5,0.5,0.5,1-0.2,1.7c-1.8,1.8-3.9,3.2-6.3,4.2
	c-2.4,1-4.9,1.4-7.4,1.4c-11.6,0-19.6-8.5-19.6-19.4s8-19.4,18.8-19.4c10.8,0,17.6,8.5,17.6,18.7C211.3,46.6,211,48.2,208.6,48.2z
	 M186.1,41h15.3c-0.7-4.5-3.8-6.7-7.5-6.7c-1.9-0.1-3.8,0.6-5.2,1.8C187.2,37.4,186.3,39.1,186.1,41z"/>
<g>
	<path d="M321.3-32c0.9,3.3,2.7,6.3,5.3,8.5c2.3-2.3,3.9-5.3,4.5-8.5H321.3z"/>
</g>
<path d="M352.9-47.2c-0.1,0-0.3,0-0.5-0.1c-1.7-0.1-6-0.1-10.7,3c-5.6,3.8-7.4,6.5-11.2,6.5c-3.1,0-8-3-6.3-9c0,0,0-0.1,0-0.1
	s0-0.1-0.1-0.1c0,0-0.1,0-0.1,0c0,0-0.1,0-0.1,0.1c-2.5,3.6-3.6,7.9-3.1,12.3c0.5,4.3,2.6,8.3,5.8,11.2c-1.5,1.5-3.3,2.7-5.3,3.5
	c0,0-0.1,0.1-0.1,0.1c0,0,0,0.1,0,0.1c0,0,0,0.1,0,0.1c0,0,0.1,0.1,0.1,0.1c3.3,1,7.3,0.8,10.3-0.8l0,0c1-0.5,1.9-1.1,2.7-1.8
	c1.1-0.8,2-1.7,2.7-2.8c1.6-2.2,3.2-5.6,5.1-10.4c2.6-6.7,6.4-9.9,10.3-11.6c0.1-0.1,0.2-0.1,0.4-0.1C353-47.1,353-47.2,352.9-47.2z
	 M338.5-35.5c-0.6,0-1.1-0.6-1.1-1.3c0-0.7,0.5-1.3,1.1-1.3c0.6,0,1.1,0.6,1.1,1.3S339.2-35.5,338.5-35.5z"/>
<path d="M353.4-46.5c-3.8,1.7-7.6,5-10.2,11.6c-1.9,4.9-3.5,8.3-5.1,10.4c-0.8,1.1-1.7,2-2.7,2.8c-0.8,0.7-1.7,1.2-2.6,1.7
	c3.3,1.1,6.9,1.3,10.2,0.4c3.8-1,7.1-3.1,9.5-6.2s3.8-6.8,3.8-10.7C356.4-40,355.4-43.5,353.4-46.5z"/>
</svg>
